<svg width="739" height="850" viewBox="0 0 739 850" fill="none" xmlns="http://www.w3.org/2000/svg">
<path d="M-25.0826 468.91C-25.0826 468.91 -107.501 433.006 -150.616 529.674C-193.731 626.341 -238.194 851.733 -105.586 892.599C27.0166 933.463 -25.0826 468.91 -25.0826 468.91Z" fill="#F6B74C"/>
<path d="M336.751 713.405C300.726 684.267 263.748 647.449 238.756 621.367C237.231 619.765 235.75 618.22 234.341 616.71C218.285 599.825 208.203 588.451 208.203 588.451L232.851 496.465C232.851 496.465 316.617 569.381 371.492 624.76C373.634 626.903 375.721 629.026 377.764 631.128C379.097 632.473 380.409 633.842 381.68 635.16C381.711 635.193 381.731 635.209 381.758 635.241C383.213 636.769 384.642 638.279 386.056 639.736C401.718 656.315 413.278 670.175 416.941 678.255C432.922 713.708 399.554 764.221 336.751 713.405Z" fill="#00A580"/>
<path d="M381.762 635.246L342.872 655.591L371.493 624.76C373.635 626.903 375.722 629.026 377.764 631.127C379.098 632.472 380.41 633.841 381.68 635.159C381.711 635.193 381.731 635.213 381.762 635.246Z" fill="#3B1034"/>
<path d="M238.757 621.361C237.23 619.764 235.755 618.221 234.334 616.717C236.464 598.424 241.536 553.147 241.669 535.838C241.688 534.475 242.797 533.383 244.164 533.388C245.529 533.398 246.618 534.517 246.598 535.88C246.454 555.177 240.49 606.797 238.757 621.361Z" fill="#008661"/>
<path d="M311.317 678.292C311.317 678.292 484.755 572.294 517.699 551.665C568.736 519.707 604.819 557.433 546.385 613.256C461.524 694.322 439.991 728.305 391.392 735.135C382.212 736.425 372.946 733.436 366.042 727.259L311.317 678.292Z" fill="#00A580"/>
<path d="M535.714 554.357C533.221 549.092 532.433 543.261 534.393 535.796C536.981 525.952 542.439 511.453 548.348 504.605C557.215 494.312 584.953 465.466 596.113 465.203C607.269 464.938 585.235 491.699 580.82 497.274C576.404 502.853 575.444 508.286 575.444 508.286C575.444 508.286 630.666 450.855 639.534 451.647C648.4 452.444 620.19 488.307 613.156 497.125C613.156 497.125 657.124 456.185 662.584 458.495C673.55 463.128 626.015 510.01 626.015 510.01C626.015 510.01 664.724 477.476 669.777 484.069C675.132 491.053 633.582 525.794 633.582 525.794C633.582 525.794 661.848 508.313 668.775 511.973C675.698 515.628 619.112 556.962 609.664 562.261C600.218 567.555 571.229 586.311 556.936 580.577C548.028 576.997 539.569 562.503 535.714 554.357Z" fill="#FFB890"/>
<path d="M551.456 558.278C578.369 563.389 590.064 532.74 590.177 532.43C590.631 531.203 590.005 529.837 588.78 529.379C587.544 528.922 586.183 529.55 585.724 530.776C585.311 531.888 575.296 557.969 552.34 553.613C552.326 553.609 552.308 553.619 552.311 553.61C551.023 553.365 549.78 554.21 549.535 555.498C549.293 556.792 550.191 558.005 551.456 558.278Z" fill="#FF8E69"/>
<path d="M624.783 538.509C626.004 538.741 627.208 537.986 627.525 536.767C627.85 535.496 627.084 534.203 625.814 533.877C602.238 527.831 595.036 506.105 594.964 505.885C594.567 504.636 593.23 503.942 591.979 504.348C590.73 504.745 590.04 506.085 590.442 507.335C590.761 508.333 598.542 531.788 624.631 538.478C624.684 538.487 624.73 538.5 624.783 538.509Z" fill="#FF8E69"/>
<path d="M-46.3342 460.232C-46.3342 460.232 -118.079 411.722 -48.7524 362.658C20.5724 313.598 135.186 374.452 149.949 395.773C182.44 442.698 152.804 464.504 152.804 464.504C152.804 464.504 71.7343 513.58 -46.3342 460.232Z" fill="#00A580"/>
<path d="M-32.4231 399.377C-33.3675 399.124 -34.1473 398.369 -34.3789 397.344C-34.7156 395.871 -33.7961 394.403 -32.3239 394.07C-29.8886 393.51 27.9642 380.587 79.9887 399.591C81.4077 400.111 82.1349 401.68 81.6189 403.1C81.0983 404.52 79.529 405.252 78.11 404.732C27.6129 386.293 -30.5203 399.271 -31.1014 399.401C-31.5552 399.505 -32.0023 399.49 -32.4231 399.377Z" fill="#008661"/>
<path d="M46.8564 396.968C46.0849 396.762 45.4084 396.22 45.059 395.429C39.4356 382.678 14.3206 371.081 14.0666 370.963C12.6917 370.334 12.0886 368.713 12.7177 367.338C13.3469 365.963 14.9715 365.36 16.3417 365.988C17.4532 366.496 43.6028 378.571 50.0653 393.221C50.6771 394.603 50.0487 396.22 48.6681 396.827C48.0754 397.095 47.4408 397.125 46.8564 396.968Z" fill="#008661"/>
<path d="M192.275 1054.6L-156.058 961.267C-149.055 931.862 -140.585 898.229 -132.384 866.408C-127.61 847.901 -122.929 830 -118.702 813.943C-108.36 774.691 -100.67 746.312 -100.67 746.312C-100.67 746.312 -98.9974 735.767 -96.664 719.914C-94.8545 707.551 -92.6452 691.956 -90.5119 675.579C-89.0726 664.409 -87.6755 652.893 -86.4685 641.787C-85.9615 637.22 -85.5111 632.734 -85.097 628.383C-83.8676 615.604 -83.0075 603.903 -82.7944 594.636C-81.7466 548.647 -90.5131 455.352 -56.8074 440.181C8.05036 409.42 52.7662 397.369 52.7662 397.369L126.063 414.763C126.063 414.763 235.549 468.964 239.653 515.382C240.745 527.615 238.364 566.329 234.193 617.728C234.11 618.543 234.04 619.366 233.97 620.189C233.875 621.477 233.756 622.764 233.672 624.07C233.631 624.445 233.597 624.852 233.567 625.245C233.495 626.078 233.414 626.883 233.358 627.71C233.306 628.333 233.246 628.969 233.2 629.608C231.569 649.012 229.742 669.948 227.753 691.773L227.749 691.787C225.355 718.116 222.755 745.733 220.107 773.422L220.103 773.436C208.513 893.926 195.757 1016.1 193.606 1042.79C193.281 1047.01 192.833 1050.93 192.275 1054.6Z" fill="#00A580"/>
<path d="M53.8011 847.584L-132.381 866.414C-127.606 847.903 -122.926 830.007 -118.697 813.945C-70.8509 823.332 53.8011 847.584 53.8011 847.584Z" fill="#008661"/>
<path d="M126.754 487.05C126.05 485.563 124.246 485.04 122.872 485.865C104.338 496.985 84.2055 498.063 62.8012 489.149C61.2994 488.526 59.5977 489.379 59.1766 490.95C58.827 492.255 59.4859 493.63 60.7359 494.145C83.673 503.585 105.756 502.464 125.564 490.631C126.781 489.905 127.36 488.341 126.754 487.05Z" fill="#008661"/>
<path d="M-20.3489 706.426L38.0314 639.265L70.3123 717.645L15.6768 781.173L-20.3489 706.426Z" fill="#008661"/>
<path d="M68.9165 717.862L127.303 650.696L159.584 729.077L104.942 792.608L68.9165 717.862Z" fill="#008661"/>
<path d="M220.123 773.421L220.119 773.435L193.383 804.505L157.947 730.979L157.356 729.763L159.053 727.806L215.74 662.607L227.763 691.776L227.759 691.79C225.366 718.114 222.768 745.726 220.123 773.421Z" fill="#008661"/>
<path d="M-49.449 933.973C-50.7535 933.624 -51.6302 932.351 -51.4472 930.977C-51.2517 929.48 -49.8765 928.425 -48.3804 928.62C-48.0465 928.665 -14.5465 932.944 26.5005 928.021C64.1614 923.504 116.087 910.092 149.604 871.835C150.601 870.699 152.325 870.584 153.461 871.58C154.597 872.577 154.71 874.306 153.714 875.443C119.028 915.031 65.6714 928.847 27.0154 933.468C-14.6889 938.45 -48.7582 934.088 -49.0968 934.043C-49.2174 934.025 -49.3368 934.004 -49.449 933.973Z" fill="#008661"/>
<path d="M9.65078 816.062C11.1563 816.466 12.6972 815.54 13.0353 814.016C46.4479 663.641 47.6867 477.986 47.6928 475.962C47.7019 474.451 46.4781 473.221 44.9705 473.218C43.4596 473.209 42.2307 474.429 42.2263 475.941C42.2168 477.959 40.9846 663.085 7.69745 812.842C7.37633 814.265 8.2388 815.684 9.65078 816.062Z" fill="white"/>
<path d="M102.799 831.336C104.304 831.74 105.846 830.809 106.183 829.29C139.456 679.028 140.69 493.913 140.701 491.891C140.71 490.379 139.486 489.149 137.978 489.146C136.467 489.137 135.239 490.357 135.234 491.87C135.226 493.883 133.996 678.477 100.845 828.116C100.528 829.545 101.387 830.958 102.799 831.336Z" fill="white"/>
<path d="M81.24 476.645C75.4705 475.099 69.559 472.999 63.51 470.346C38.0032 459.145 19.4385 442.29 18.6615 441.58C17.5468 440.56 17.4693 438.829 18.4897 437.714C19.5101 436.599 21.2398 436.521 22.3544 437.542C22.5394 437.711 41.124 454.567 65.8306 465.388C98.3986 479.654 125.678 477.228 146.908 458.178C148.031 457.165 149.759 457.262 150.771 458.385C151.778 459.508 151.685 461.237 150.562 462.25C131.881 479.006 108.166 483.86 81.24 476.645Z" fill="#008661"/>
<path d="M99.8438 468.125C65.2541 464.957 39.3157 430.325 39.3157 430.325C49.4869 411.124 56.0585 386.973 58.984 368.667C60.4661 359.414 60.9945 353.234 60.9945 353.234L140.465 409.208L134.93 442.977L133.575 451.231C133.575 451.231 128.769 470.777 99.8438 468.125Z" fill="#FFB890"/>
<path d="M134.93 442.977C91.0872 428.151 67.2526 386.042 59.7174 363.8C61.1995 354.547 60.9891 353.238 60.9891 353.238L140.46 409.212L134.93 442.977Z" fill="#3B1034"/>
<path d="M215.573 288.619C215.573 288.619 227.018 267.844 247.926 276.644C268.834 285.445 250.203 375.474 197.895 357.939L215.573 288.619Z" fill="#FF8E69"/>
<path d="M215.902 367.993C197.104 408.674 162.185 432.619 118.059 415.672C21.6767 378.638 43.4109 235.435 43.4109 235.435C55.1276 161.71 121.325 140.742 186.092 171.025C250.857 201.317 246.202 246.2 241.572 280.777C240.188 291.124 236.235 311.149 229.22 333.272C228.117 336.731 226.957 340.24 225.697 343.783C224.161 348.113 222.525 352.477 220.754 356.825C219.236 360.564 217.627 364.304 215.902 367.993Z" fill="#FFB890"/>
<path d="M145.935 392.742C149.729 393.994 154.859 394.652 160.56 392.545C161.65 392.145 162.204 390.935 161.805 389.846C161.399 388.76 160.191 388.2 159.106 388.601C149.736 392.061 142.212 386.29 141.898 386.041C140.987 385.326 139.667 385.483 138.953 386.39C138.239 387.296 138.387 388.614 139.292 389.333C139.49 389.491 141.99 391.439 145.935 392.742Z" fill="#FF8E69"/>
<path d="M175.53 230.917C175.53 230.917 192.513 239.483 205.897 236.026C218.263 232.833 220.925 232.473 225.171 234.017C232.121 236.546 230.965 260.925 230.965 260.925L243.706 275.222C243.706 275.222 247.255 243.499 241.856 231.595C236.456 219.691 212.369 206.895 190.906 216.66C169.442 226.429 175.53 230.917 175.53 230.917Z" fill="#3B1034"/>
<path d="M197.204 211.244C201.774 224.204 188.182 236.273 175.531 230.918C160.823 224.691 140.443 217.416 132.423 220.957C119.259 226.774 118.3 239.219 109.922 246.976C101.542 254.726 59.2547 237.44 59.2547 237.44L63.2242 207.533C63.2242 207.533 166.758 191.451 187.69 201.286C192.924 203.746 195.816 207.298 197.204 211.244Z" fill="#3B1034"/>
<path d="M52.2736 248.381C52.2736 248.381 34.566 258.606 19.9871 254.965C5.40822 251.324 27.7773 225.891 27.7773 225.891C27.7773 225.891 2.80573 214.283 11.9097 196.67C21.0137 179.057 38.4623 183.733 38.4623 183.733C38.4623 183.733 32.9719 140.488 50.6467 132.276C68.3227 124.058 74.1823 147.56 74.1823 147.56C74.1823 147.56 92.6343 93.6018 129.788 99.1706C166.941 104.739 128.561 137.693 128.561 137.693C128.561 137.693 174.892 98.7238 205.205 114.992C235.517 131.261 189.855 154.116 189.855 154.116C189.855 154.116 249.754 131.316 269.266 153.463C288.778 175.61 240.249 183.079 240.249 183.079C240.249 183.079 285.203 200.639 278.288 225.27C271.372 249.901 237.995 234.691 237.995 234.691C237.995 234.691 103.453 198.425 52.2736 248.381Z" fill="#3B1034"/>
<path d="M230.965 260.925C230.965 260.925 228.178 275.273 233.064 286.513C235.591 292.323 236.734 298.64 236.005 304.936L235.112 312.607C235.112 312.607 246.948 283.019 242.894 270.097C240.645 265.118 236.053 262.75 230.965 260.925Z" fill="#3B1034"/>
<path d="M92.0252 265.911C91.142 266.757 90.3883 267.793 89.717 268.952C88.882 270.422 88.1864 272.121 87.5944 273.937C83.6817 285.903 83.793 303.553 70.9444 302.712C56.0749 301.746 58.2412 270.639 58.7614 265.013C58.8167 264.452 58.8489 264.144 58.8489 264.144C58.2713 262.616 57.5747 261.176 56.8203 259.821C51.3927 250.211 42.3417 245.184 42.3417 245.184C65.9414 225.575 116.816 230.354 116.816 230.354C112.177 250.847 97.8996 260.276 92.0252 265.911Z" fill="#3B1034"/>
<path d="M124.852 270.647C123.986 270.194 123.237 269.492 122.725 268.578C121.331 266.074 122.228 262.915 124.731 261.521C125.58 261.046 133.298 256.928 142.283 258.519C151.684 260.181 156.878 264.305 157.44 264.771C159.646 266.6 159.953 269.866 158.124 272.073C156.308 274.268 153.066 274.587 150.86 272.793C150.715 272.679 147.07 269.903 140.477 268.738C135.023 267.773 129.831 270.557 129.779 270.584C128.196 271.463 126.346 271.428 124.852 270.647Z" fill="#3B1034"/>
<path d="M196.786 283.87C196.078 283.199 195.553 282.317 195.316 281.296C194.665 278.505 196.4 275.716 199.19 275.065C200.137 274.842 208.693 273.019 216.885 277.024C225.463 281.217 229.314 286.615 229.728 287.218C231.345 289.581 230.735 292.811 228.372 294.429C226.023 296.035 222.817 295.452 221.194 293.112C221.088 292.964 218.35 289.287 212.333 286.347C207.352 283.914 201.602 285.156 201.544 285.17C199.774 285.583 198.007 285.035 196.786 283.87Z" fill="#3B1034"/>
<path d="M123.888 350.992C123.888 350.992 162.769 362.513 185.768 363.437C185.768 363.437 181.442 390.802 147.82 381.537C120.007 373.874 123.888 350.992 123.888 350.992Z" fill="white"/>
<path d="M128.595 312.555C127.855 315.785 118.519 316.402 107.74 313.935C96.9606 311.468 88.822 306.85 89.5564 303.623C90.2967 300.393 99.6322 299.776 110.411 302.243C121.197 304.707 129.335 309.324 128.595 312.555Z" fill="#FF8E69"/>
<path d="M225.697 343.782C223.431 343.526 220.994 343.118 218.466 342.546C207.688 340.074 199.539 335.46 200.286 332.226C201.023 329.004 210.354 328.387 221.141 330.846C224.074 331.511 226.816 332.351 229.225 333.272C228.116 336.735 226.96 340.245 225.697 343.782Z" fill="#FF8E69"/>
<path d="M138.714 291.305C137.389 297.091 133.758 301.196 130.604 300.476C127.449 299.756 125.966 294.481 127.291 288.695C128.616 282.909 132.247 278.804 135.401 279.524C138.556 280.244 140.039 285.519 138.714 291.305Z" fill="#3B1034"/>
<path d="M209.386 309.013C208.061 314.799 204.431 318.904 201.276 318.184C198.122 317.464 196.639 312.189 197.963 306.403C199.288 300.617 202.919 296.512 206.073 297.232C209.223 297.951 210.706 303.226 209.386 309.013Z" fill="#3B1034"/>
<path d="M157.551 342.957C156.15 342.316 155.319 340.78 155.627 339.198C155.988 337.345 157.782 336.131 159.635 336.492C162.697 337.087 165.215 337.396 166.996 337.557C168.371 326.18 167.842 310.087 167.835 309.91C167.769 308.022 169.249 306.444 171.136 306.378C173.023 306.312 174.607 307.789 174.672 309.677C174.699 310.491 175.332 329.75 173.307 341.72C173.027 343.364 171.607 344.568 169.943 344.568C169.758 344.569 165.316 344.557 158.338 343.203C158.054 343.157 157.796 343.073 157.551 342.957Z" fill="#FF8E69"/>
<path d="M58.8516 264.135C58.8516 264.135 52.5232 241.28 30.1407 245.012C7.76406 248.742 5.06863 340.64 60.0195 335.668L58.8516 264.135Z" fill="#FFB890"/>
<path d="M42.7819 306.807C41.3186 306.134 40.4938 304.5 40.8922 302.882C46.7952 278.962 30.6822 264.047 30.5168 263.898C29.1175 262.631 29.0096 260.471 30.2733 259.065C31.5404 257.665 33.7004 257.552 35.1031 258.825C35.8942 259.539 54.399 276.674 47.5289 304.52C47.0776 306.354 45.2247 307.472 43.3912 307.02C43.1749 306.967 42.973 306.898 42.7819 306.807Z" fill="#FF8E69"/>
<path d="M28.0262 286.325C26.9857 285.85 26.2087 284.86 26.0591 283.642C25.8242 281.769 27.1541 280.06 29.0261 279.825C30.2757 279.669 41.4024 278.464 47.6068 284.353C48.9774 285.652 49.0335 287.818 47.7306 289.183C46.4311 290.554 44.2755 290.614 42.9003 289.313C39.6139 286.186 32.2075 286.317 29.8789 286.611C29.2212 286.69 28.5843 286.579 28.0262 286.325Z" fill="#FF8E69"/>
<path d="M117.208 336.946C109.169 333.624 102.578 327.682 98.4104 319.913C93.6388 311.015 92.614 300.794 95.5297 291.128C98.4454 281.463 104.946 273.509 113.838 268.733C122.734 263.958 132.951 262.931 142.613 265.846C152.285 268.763 160.225 275.262 164.996 284.161C169.769 293.054 170.793 303.279 167.877 312.945C164.961 322.611 158.461 330.564 149.569 335.34C140.677 340.116 130.456 341.142 120.793 338.227C119.575 337.856 118.378 337.425 117.208 336.946ZM144.679 270.796C143.632 270.365 142.567 269.984 141.472 269.656C132.825 267.048 123.684 267.968 115.725 272.237C107.77 276.512 101.95 283.625 99.3416 292.275C96.7331 300.925 97.6505 310.069 101.918 318.025C106.189 325.987 113.289 331.805 121.946 334.411C130.593 337.018 139.734 336.099 147.689 331.829C155.649 327.555 161.464 320.441 164.072 311.79C166.68 303.145 165.763 293.996 161.496 286.04C157.767 279.085 151.871 273.766 144.679 270.796Z" fill="white"/>
<path d="M198.955 349.64C191.353 346.5 185.126 340.882 181.187 333.535C176.675 325.127 175.712 315.46 178.466 306.322C181.22 297.184 187.37 289.663 195.775 285.148C204.181 280.633 213.842 279.662 222.98 282.421C241.821 288.107 252.55 308.081 246.864 326.945C241.178 345.809 221.207 356.53 202.35 350.846C201.19 350.5 200.056 350.095 198.955 349.64ZM224.805 287.297C223.84 286.898 222.848 286.542 221.828 286.234C213.709 283.787 205.125 284.646 197.656 288.66C190.187 292.669 184.724 299.351 182.277 307.473C179.83 315.595 180.686 324.182 184.698 331.653C188.704 339.123 195.383 344.587 203.502 347.033C220.259 352.085 238 342.557 243.058 325.795C247.795 310.06 239.683 293.449 224.805 287.297Z" fill="white"/>
<path d="M166.46 306.324C165.873 306.082 165.372 305.632 165.081 305.017C164.456 303.702 164.991 302.136 166.301 301.494C166.636 301.328 174.576 297.576 182.161 304.465C183.246 305.448 183.327 307.129 182.344 308.214C181.362 309.299 179.682 309.381 178.597 308.398C173.728 303.975 168.813 306.182 168.607 306.278C167.901 306.61 167.126 306.603 166.46 306.324Z" fill="white"/>
<path d="M103.669 282.897C102.662 283.96 100.981 284.006 99.9182 282.999C99.8082 282.905 94.9705 278.405 87.5903 273.931C79.9176 269.259 69.4838 264.623 58.7633 265.004C58.8186 264.442 58.8508 264.135 58.8508 264.135C58.2731 262.607 57.5766 261.167 56.8222 259.812C69.2089 258.805 81.054 263.783 89.7176 268.947C97.7955 273.753 103.108 278.726 103.558 279.142C104.621 280.149 104.676 281.833 103.669 282.897Z" fill="white"/>
<path d="M-148.485 929.454C-150.799 928.834 -152.834 927.246 -153.943 924.913C-155.954 920.69 -154.157 915.632 -149.935 913.62C55.2906 815.879 143.1 701.405 180.632 622.581C220.865 538.075 213.314 476.357 213.233 475.743C212.622 471.103 215.882 466.848 220.522 466.232C225.161 465.62 229.418 468.881 230.029 473.521C230.386 476.229 238.296 540.87 195.929 629.864C171.228 681.747 134.404 731.223 86.4762 776.918C26.8614 833.763 -50.2315 884.902 -142.653 928.916C-144.545 929.823 -146.606 929.957 -148.485 929.454Z" fill="#F6B74C"/>
<path d="M45.9606 794.746L86.8565 800.28L77.9859 854.013L40.4455 843.699C40.4455 843.699 32.2077 822.452 45.9606 794.746Z" fill="#FFB890"/>
<path d="M86.8564 800.28C86.8564 800.28 119.768 784.275 133.523 786.205C151.233 788.69 152.756 811.04 152.756 811.04L86.8564 800.28Z" fill="#FF8E69"/>
<path d="M118.783 848.303L128.701 811.287C132.337 797.719 146.328 789.637 159.892 793.272L191.226 801.668C204.79 805.302 212.866 819.297 209.23 832.865L199.312 869.88C195.676 883.449 181.685 891.531 168.121 887.896L136.787 879.5C123.223 875.866 115.147 861.871 118.783 848.303ZM156.507 805.905C149.91 804.137 143.099 808.067 141.329 814.671L131.411 851.686C129.643 858.286 133.57 865.098 140.172 866.867L171.506 875.263C178.103 877.031 184.914 873.101 186.684 866.497L196.602 829.481C198.37 822.882 194.443 816.07 187.841 814.301L156.507 805.905Z" fill="#E8311B"/>
<path d="M134.851 901.445C163.007 918.86 193.631 927.065 226.723 926.062L260.433 800.255C230.379 789.921 199.755 781.715 168.561 775.638L134.851 901.445Z" fill="#FF6129"/>
<path d="M188.497 877.554C188.497 877.554 249.558 838.016 232.558 819.735C215.547 801.456 188.497 877.554 188.497 877.554Z" fill="#E8311B"/>
<path d="M171.049 902.145C171.826 902.479 172.755 902.247 173.28 901.54L212.95 848.159C213.567 847.332 213.395 846.162 212.563 845.544C211.737 844.926 210.568 845.099 209.949 845.931L170.279 899.312C169.662 900.14 169.835 901.309 170.666 901.928C170.788 902.015 170.918 902.09 171.049 902.145Z" fill="#BE2D08"/>
<path d="M189.449 873.924C189.449 873.924 211.094 804.459 186.329 801.297C161.569 798.137 189.449 873.924 189.449 873.924Z" fill="#E8311B"/>
<path d="M189.037 877.293C189.294 877.402 189.576 877.453 189.871 877.436C190.898 877.381 191.692 876.495 191.632 875.467L189.443 835.684C189.389 834.652 188.503 833.863 187.476 833.918C186.444 833.973 185.655 834.859 185.71 835.887L187.899 875.67C187.942 876.408 188.403 877.023 189.037 877.293Z" fill="#BE2D08"/>
<path d="M74.0269 854.386C74.0269 854.386 118.525 888.537 140.37 871.997C168.563 850.657 173.928 818.853 151.362 798.454C137.497 785.921 100.012 803.283 79.6065 798.908C79.6065 798.908 56.1204 839.918 74.0269 854.386Z" fill="#FFB890"/>
<path d="M-172.003 716.165C-172.003 716.165 -219.699 708.333 -243.898 752.019C-268.096 795.705 -197.275 820.807 -125.857 827.968C-54.4382 835.129 50.6811 849.148 50.6811 849.148C50.5232 832.794 54.2076 813.433 63.3441 795.699C63.3441 795.699 0.331712 779.833 -47.1228 755.818C-72.3704 743.032 -135.261 720.822 -172.003 716.165Z" fill="#00A580"/>
<path d="M377.31 924.472C345.901 956.992 298.72 996.235 246.76 1034.48C245.988 1035.04 245.041 1035.32 244.087 1035.25C240.322 1035 238.949 1030.17 242.004 1027.95C367.022 937.115 433.652 862.73 438.859 808.36C439.052 806.332 440.668 804.639 442.707 804.624C445.041 804.608 446.817 806.603 446.606 808.867C443.61 841.07 420.294 879.964 377.31 924.472Z" fill="#00A580"/>
<path d="M412.324 881.604C412.324 881.604 433.161 906.472 475.446 868.108C475.446 868.108 432.76 839.09 412.324 881.604Z" fill="#00CCA1"/>
<path d="M391.545 902.505C391.545 902.505 417.532 883.074 381.603 838.712C381.603 838.712 350.255 879.74 391.545 902.505Z" fill="#00CCA1"/>
<path d="M437.044 832.152C437.044 832.152 468.018 822.5 448.932 768.69C448.932 768.69 405.706 796.916 437.044 832.152Z" fill="#00CCA1"/>
<path d="M332.049 405.881C332.049 405.881 337.725 311.799 369.174 319.338C400.622 326.877 332.049 405.881 332.049 405.881Z" fill="#00CCA1"/>
<path d="M315.431 441.232C314.561 440.568 314.231 439.371 314.69 438.331L349.611 359.565C350.154 358.342 351.584 357.792 352.803 358.33C354.027 358.868 354.574 360.303 354.037 361.523L319.116 440.289C318.573 441.512 317.143 442.061 315.925 441.519C315.745 441.441 315.58 441.347 315.431 441.232Z" fill="#00A580"/>
<path d="M335.534 402.489C335.534 402.489 400.073 333.81 419.416 359.731C438.758 385.653 335.534 402.489 335.534 402.489Z" fill="#00CCA1"/>
<path d="M331.998 405.101C331.715 404.884 331.471 404.598 331.303 404.253C330.711 403.056 331.201 401.604 332.403 401.008L378.657 378.13C379.857 377.54 381.304 378.033 381.9 379.23C382.491 380.426 382.002 381.879 380.8 382.475L334.546 405.352C333.692 405.77 332.709 405.642 331.998 405.101Z" fill="#00A580"/>
<path d="M338.206 225.845C341.809 229.868 347.992 230.207 352.012 226.592C356.033 222.977 356.373 216.787 352.771 212.764C349.169 208.74 342.985 208.402 338.965 212.017C334.946 215.627 334.605 221.817 338.206 225.845Z" fill="#FF6129"/>
<path d="M321.041 787.8C324.644 791.823 330.827 792.161 334.847 788.546C338.867 784.931 339.208 778.741 335.606 774.718C332.003 770.695 325.82 770.357 321.8 773.972C317.776 777.581 317.44 783.772 321.041 787.8Z" fill="#FF6129"/>
<path d="M537.468 738.438C541.07 742.461 547.254 742.795 551.274 739.184C555.294 735.569 555.635 729.379 552.034 725.352C548.431 721.328 542.248 720.99 538.228 724.605C534.203 728.219 533.865 734.415 537.468 738.438Z" fill="#008661"/>
<path d="M398.751 480.782C397.796 486.106 401.327 491.198 406.639 492.15C411.956 493.103 417.039 489.563 417.996 484.234C418.951 478.911 415.42 473.819 410.107 472.867C404.791 471.913 399.708 475.454 398.751 480.782Z" fill="#FF6129"/>
<path d="M490.877 414.892C489.921 420.215 493.453 425.307 498.765 426.259C504.077 427.212 509.16 423.671 510.121 418.344C511.077 413.02 507.545 407.928 502.233 406.976C496.916 406.023 491.833 409.564 490.877 414.892Z" fill="#008661"/>
</svg>
