<svg width="61" height="60" viewBox="0 0 61 60" fill="none" xmlns="http://www.w3.org/2000/svg">
<path fill-rule="evenodd" clip-rule="evenodd" d="M0.5 0H52.1667V8.33333H48.8333V3.33333H3.83333V41.6667H39.4783V45H0.5V0ZM50.5 21.6667C51.8261 21.6667 53.0978 21.1399 54.0355 20.2022C54.9732 19.2645 55.5 17.9927 55.5 16.6667C55.5 15.3406 54.9732 14.0688 54.0355 13.1311C53.0978 12.1934 51.8261 11.6667 50.5 11.6667C49.1739 11.6667 47.9021 12.1934 46.9645 13.1311C46.0268 14.0688 45.5 15.3406 45.5 16.6667C45.5 17.9927 46.0268 19.2645 46.9645 20.2022C47.9021 21.1399 49.1739 21.6667 50.5 21.6667ZM53.885 25.0167C56.05 25.0167 57.7633 25.99 58.885 27.4933C59.9333 28.9017 60.3767 30.6433 60.4767 32.2517C60.5746 33.9015 60.3499 35.5546 59.815 37.1183C59.315 38.5683 58.47 40.0683 57.1667 41.0967V57.5C57.1679 58.1281 56.9326 58.7337 56.5076 59.1962C56.0827 59.6588 55.4992 59.9444 54.8732 59.9963C54.2472 60.0482 53.6246 59.8625 53.1293 59.4762C52.634 59.09 52.3022 58.5314 52.2 57.9117L50.05 45H49.5533L47.1233 57.96C47.0079 58.5717 46.6685 59.1183 46.1715 59.4929C45.6744 59.8676 45.0554 60.0434 44.4356 59.9859C43.8159 59.9283 43.2398 59.6417 42.8202 59.1819C42.4006 58.7222 42.1675 58.1225 42.1667 57.5V33.7217C41.8334 34.2294 41.5045 34.7399 41.18 35.2533L41.05 35.4583L41.0167 35.5117L41.0083 35.5267C40.7837 35.8873 40.4709 36.1848 40.0993 36.391C39.7278 36.5971 39.3099 36.7052 38.885 36.705H30.5517C29.8886 36.705 29.2527 36.4416 28.7839 35.9728C28.3151 35.5039 28.0517 34.868 28.0517 34.205C28.0517 33.542 28.3151 32.9061 28.7839 32.4372C29.2527 31.9684 29.8886 31.705 30.5517 31.705H37.5133C37.9183 31.0783 38.4517 30.265 39.0117 29.4483C39.595 28.5967 40.2383 27.695 40.8117 26.9883C41.09 26.6433 41.4017 26.2833 41.715 25.9883C41.8683 25.8433 42.0817 25.655 42.3417 25.4883C42.8005 25.1871 43.3362 25.024 43.885 25.0183L53.885 25.0167Z" fill="#222831"/>
</svg>
