<svg xmlns="http://www.w3.org/2000/svg" viewBox="0 0 380.99 270.69">
  <defs>
    <style>
      .cls-1 {
        isolation: isolate;
      }

      .cls-10, .cls-11, .cls-13, .cls-14, .cls-16, .cls-17, .cls-18, .cls-2, .cls-20, .cls-21, .cls-4 {
        fill: #433a61;
      }

      .cls-2 {
        opacity: 0.16;
      }

      .cls-11, .cls-13, .cls-14, .cls-17, .cls-18, .cls-2, .cls-20, .cls-21, .cls-7, .cls-8 {
        mix-blend-mode: multiply;
      }

      .cls-3 {
        fill: #ff8c6c;
      }

      .cls-19, .cls-5 {
        fill: #f73c50;
      }

      .cls-12, .cls-6, .cls-7, .cls-8 {
        fill: #fcbb58;
      }

      .cls-7 {
        opacity: 0.39;
      }

      .cls-8 {
        opacity: 0.85;
      }

      .cls-9 {
        opacity: 0.5;
      }

      .cls-10 {
        opacity: 0.15;
      }

      .cls-11 {
        opacity: 0.49;
      }

      .cls-12 {
        stroke: #fcbb58;
        stroke-miterlimit: 10;
        stroke-width: 0.5px;
      }

      .cls-13 {
        opacity: 0.08;
      }

      .cls-14, .cls-16 {
        opacity: 0.37;
      }

      .cls-15 {
        fill: #fff;
      }

      .cls-17 {
        opacity: 0.1;
      }

      .cls-18 {
        opacity: 0.27;
      }

      .cls-19 {
        opacity: 0.35;
      }

      .cls-20 {
        opacity: 0.21;
      }

      .cls-21 {
        opacity: 0.47;
      }
    </style>
  </defs>
  <g class="cls-1">
    <g id="Layer_2" data-name="Layer 2">
      <g id="OBJECTS">
        <g>
          <ellipse class="cls-2" cx="192.85" cy="259.32" rx="172.16" ry="11.37"/>
          <g>
            <g>
              <polygon class="cls-3" points="46.12 144.96 40.85 143.93 40.98 150.37 46.83 150.11 46.12 144.96"/>
              <path class="cls-4" d="M37.3,153.67c-.17-.26,0-18.71,0-18.71s.72-1.53,1.94-1.67A2.6,2.6,0,0,1,42,134.84l.18,18.56Z"/>
              <path class="cls-5" d="M60.17,153.29l22.43,0-1.08-14.66-23.31,4.63-11-.5a2.67,2.67,0,0,0-2.78,2.66l.57,6.91Z"/>
            </g>
            <g>
              <path class="cls-6" d="M41.16,90.93S64,52.55,123.89,48.22v42.2S42.41,89.67,41.16,90.93Z"/>
              <g>
                <g>
                  <path class="cls-6" d="M130.68,88.69c0-2.82-85-1.41-90.67,0S8.37,151.4,8.37,151.4,8,219.16,10,219.16H133.72C140.5,219.16,130.68,91.51,130.68,88.69Zm-17.42,62.9c.31.31-91,0-91,0s20.85-55.4,23.65-55.71,65.2.31,66.76.93S113,151.28,113.26,151.59Z"/>
                  <path class="cls-7" d="M130.68,88.69c0-2.82-85-1.41-90.67,0S8.37,151.4,8.37,151.4,8,219.16,10,219.16H133.72C140.5,219.16,130.68,91.51,130.68,88.69Zm-17.42,62.9c.31.31-91,0-91,0s20.85-55.4,23.65-55.71,65.2.31,66.76.93S113,151.28,113.26,151.59Z"/>
                  <path class="cls-8" d="M94.1,164.06l-.23-4.85,17.74.21-.08,4.44c0,2.22-1.45,4-3.21,4L97.41,168C95.67,168,94.21,166.27,94.1,164.06Z"/>
                </g>
                <path class="cls-4" d="M93.68,162.19l-.23-4,18.73.11-.1,3.7a3.44,3.44,0,0,1-3.4,3.35l-11.53.13A3.44,3.44,0,0,1,93.68,162.19Z"/>
                <path class="cls-5" d="M9.47,180.39v19.89H3.65V181.07A4.53,4.53,0,0,1,9.47,180.39Z"/>
                <polygon class="cls-4" points="0.74 216.71 0 201.41 32.22 201.79 31.93 216.43 0.74 216.71"/>
              </g>
            </g>
            <g>
              <path class="cls-6" d="M228.15,228.65v-7.33H224.6v7.33H164.92v-7.33h-3.55v7.33H141l.72,2.3c7.26,23.28,9.65,23.28,10.94,23.28h89.22V228.65Zm-21.4,3.54v18.5H178.9v-18.5Zm-60.93,0h29.53v18.5H153.13C151.7,248.93,148.45,240.34,145.82,232.19Zm92.49,18.5h-28v-18.5h28Z"/>
              <g>
                <path class="cls-5" d="M130.3,202.46,127.54,44.53s244.2-4.61,247.88.46.93,155.63-1.38,156.09S130.3,202.46,130.3,202.46Z"/>
                <path class="cls-5" d="M130.3,202.46,127.54,44.53s244.2-4.61,247.88.46.93,155.63-1.38,156.09S130.3,202.46,130.3,202.46Z"/>
                <g class="cls-9">
                  <path class="cls-10" d="M377.21,98.46l-248.71,1,.05,3.06,248.64-.6C377.2,100.74,377.2,99.6,377.21,98.46Z"/>
                  <path class="cls-10" d="M377.05,118.76l-248.2,1,.06,3.06,248.1-.6C377,121.05,377,119.9,377.05,118.76Z"/>
                  <path class="cls-10" d="M127.84,61.89l249-.6c0-1.21-.07-2.34-.12-3.43l-248.95,1Z"/>
                  <path class="cls-10" d="M377.16,78.16l-249,1,.06,3.06,249-.6C377.18,80.43,377.17,79.28,377.16,78.16Z"/>
                  <path class="cls-10" d="M376.75,139.06l-247.54,1,0,3.06,247.43-.6C376.71,141.36,376.73,140.21,376.75,139.06Z"/>
                  <path class="cls-10" d="M375.66,179.67l-245.74,1,.05,3.06,245.54-.59C375.56,182,375.61,180.86,375.66,179.67Z"/>
                  <path class="cls-10" d="M376.3,159.37l-246.74,1,.06,3.06,246.59-.59C376.24,161.67,376.27,160.52,376.3,159.37Z"/>
                </g>
                <path class="cls-5" d="M129.3,196.9l.32,28.14,246.52,2.28c.18-9.27.34-19.29.48-29.7,0-.08,0-.16,0-.22C375.71,194,158.09,196.54,129.3,196.9Z"/>
                <path class="cls-11" d="M129.3,196.9l.32,28.14,246.52,2.28c.18-9.27.34-19.29.48-29.7,0-.08,0-.16,0-.22C375.71,194,158.09,196.54,129.3,196.9Z"/>
                <polygon class="cls-6" points="361.31 216.5 361 202.21 380.99 203.01 380.68 216.66 361.31 216.5"/>
                <path class="cls-12" d="M375.42,45c-.63-.87-8.37-1.46-20.75-1.83L311,96.09h32.66l-35.19,32.34L375.3,80.06,339,82.1l37.57-28.95C376.25,48.54,375.89,45.62,375.42,45Z"/>
                <path class="cls-13" d="M129.3,145.45l1,57s241.44-.92,243.74-1.38c1-.2,2.18-31.14,2.77-65.42C292.3,205.05,179.33,167.75,129.3,145.45Z"/>
              </g>
            </g>
            <g>
              <g>
                <path class="cls-4" d="M82.72,183.42c44.78-1.41,42.55,40.32,41,49.47-1.64,9.84-5.61,33-47.59,30.47S29.11,185.1,82.72,183.42Z"/>
                <path class="cls-14" d="M64.54,223.34s-1.83-23.12,21.16-22.51c25,.66,28.38,36.54,7.21,41.79C65.78,249.36,64.54,223.34,64.54,223.34Z"/>
                <path class="cls-15" d="M66.24,222.54s-1.67-21.26,19.46-20.69c23,.61,26.09,33.58,6.63,38.42C67.38,246.46,66.24,222.54,66.24,222.54Z"/>
                <path class="cls-16" d="M66.24,222.54s-1.67-21.26,19.46-20.69c23,.61,26.09,33.58,6.63,38.42C67.38,246.46,66.24,222.54,66.24,222.54Z"/>
                <path class="cls-16" d="M92.51,234.84c-22.52,5.59-25.63-13.36-26-17.1a24,24,0,0,0-.24,4.8s1.14,23.92,26.09,17.73c9.31-2.32,13.44-11.08,12.71-19.66C104,227.19,99.85,233,92.51,234.84Z"/>
                <path class="cls-15" d="M80.22,222.19s-.5-6.38,5.84-6.21c6.89.18,7.82,10.07,2,11.52C80.56,229.36,80.22,222.19,80.22,222.19Z"/>
              </g>
              <g>
                <path class="cls-4" d="M305.65,183.42c44.78-1.41,42.56,40.32,41,49.47-1.64,9.84-5.61,33-47.59,30.47S252.05,185.1,305.65,183.42Z"/>
                <path class="cls-14" d="M287.47,223.34s-1.82-23.12,21.16-22.51c25,.66,28.38,36.54,7.21,41.79C288.71,249.36,287.47,223.34,287.47,223.34Z"/>
                <path class="cls-15" d="M289.17,222.54s-1.67-21.26,19.46-20.69c23,.61,26.09,33.58,6.63,38.42C290.32,246.46,289.17,222.54,289.17,222.54Z"/>
                <path class="cls-16" d="M289.17,222.54s-1.67-21.26,19.46-20.69c23,.61,26.09,33.58,6.63,38.42C290.32,246.46,289.17,222.54,289.17,222.54Z"/>
                <path class="cls-16" d="M315.45,234.84c-22.53,5.59-25.64-13.36-26-17.1a24.93,24.93,0,0,0-.24,4.8s1.15,23.92,26.09,17.73c9.32-2.32,13.45-11.08,12.71-19.66C326.91,227.19,322.78,233,315.45,234.84Z"/>
                <path class="cls-15" d="M303.15,222.19s-.5-6.38,5.84-6.21c6.89.18,7.82,10.07,2,11.52C303.49,229.36,303.15,222.19,303.15,222.19Z"/>
              </g>
            </g>
            <g>
              <g>
                <path class="cls-5" d="M93.48,138.5s26.93,4.08,24.13,15.65c-1,4.31-20.53-1.77-20.53-1.77Z"/>
                <path class="cls-17" d="M93.48,138.5s26.93,4.08,24.13,15.65c-1,4.31-20.53-1.77-20.53-1.77Z"/>
              </g>
              <g>
                <g>
                  <g>
                    <path class="cls-5" d="M97.65,152.38C97.49,147,97,142.05,95.73,140c-1.8-3-9.89-5-14.73-3.11s-7.87,8.68-9.82,15.53Z"/>
                    <path class="cls-18" d="M97.65,152.38C97.49,147,97,142.05,95.73,140c-1.8-3-9.89-5-14.73-3.11s-7.87,8.68-9.82,15.53Z"/>
                    <path class="cls-4" d="M83.84,152.39c1.43-7.09,3-13.23,3-13.35l-.48-.12c0,.12-1.63,6.32-3.07,13.47Z"/>
                    <polygon class="cls-3" points="85.74 134.09 84.76 138.55 89.03 139.41 89.49 134.8 85.74 134.09"/>
                    <polygon class="cls-19" points="85.74 134.09 84.76 138.55 89.03 139.41 89.49 134.8 85.74 134.09"/>
                  </g>
                  <path class="cls-3" d="M107.83,115.7c-1.22,4.5,1,9,5.09,10.17s8.3-1.62,9.53-6.12-1-9-5.09-10.16S109.06,111.21,107.83,115.7Z"/>
                  <path class="cls-19" d="M111.19,116.57a4.77,4.77,0,0,0,3,6,4.72,4.72,0,0,0,5.62-3.6,4.5,4.5,0,1,0-8.62-2.39Z"/>
                  <path class="cls-3" d="M59.9,105.78c-1.22,4.5,1.06,9,5.09,10.17s8.3-1.62,9.53-6.12-1-9-5.09-10.16S61.13,101.28,59.9,105.78Z"/>
                  <path class="cls-19" d="M63.26,106.65a4.77,4.77,0,0,0,3,6,4.72,4.72,0,0,0,5.62-3.6,4.5,4.5,0,1,0-8.62-2.39Z"/>
                  <path class="cls-3" d="M90.78,88.09,101.11,91c19.52,1.88,15.77,14.21,13.44,25.35l-.69,3.33c1.21,12.24-13.07,18.31-24,16l-8.48-1.78c-10.92-2.31-19.1-10.55-15.55-24.34l.7-3.33C68.87,95.06,79.86,85.79,90.78,88.09Z"/>
                  <g>
                    <path class="cls-4" d="M83.73,116.93c3.77-.17,3.78,2.68,5.32,2.47s3.38-2.48,5.4-.75.82,9.93-8.9,7.61C78.74,124.64,80,117.09,83.73,116.93Z"/>
                    <path class="cls-5" d="M95.25,121.54A10.53,10.53,0,0,0,92,121a9.29,9.29,0,0,0-8.47,4.51,7.41,7.41,0,0,0,2,.78C92.31,127.88,95,124.39,95.25,121.54Z"/>
                    <path class="cls-15" d="M82.37,117.36c.62,2.59,3.26,4.56,6.48,4.62a7.13,7.13,0,0,0,6-2.86,1.63,1.63,0,0,0-.38-.47c-2-1.73-3.87.55-5.4.75s-1.55-2.64-5.32-2.47A2.73,2.73,0,0,0,82.37,117.36Z"/>
                  </g>
                  <path class="cls-4" d="M121.45,117.66h0Z"/>
                  <path class="cls-19" d="M98.29,123.16c-.39,1.91,1.29,3.87,3.75,4.38s4.78-.63,5.17-2.54-1.29-3.88-3.75-4.39S98.68,121.25,98.29,123.16Z"/>
                  <path class="cls-4" d="M78.48,100a4.62,4.62,0,0,1,3.61-2.21c.38,0,.76,0,1.13,0a1.9,1.9,0,0,1,.93.33A3.57,3.57,0,0,1,85.58,100c.25.69,1.36.38,1.1-.31a4.9,4.9,0,0,0-1.36-2.08,6,6,0,0,0-1.89-1,4.67,4.67,0,0,0-4.28.93,5.43,5.43,0,0,0-1.53,2c-.28.57.55,1.08.86.5Z"/>
                  <path class="cls-4" d="M105.74,104.77a5.36,5.36,0,0,0-3.4-4,3.09,3.09,0,0,0-1.34-.23c-.45,0-.89,0-1.33.06a4.42,4.42,0,0,0-2.5,1.33c-.51.53.31,1.35.81.81a3.27,3.27,0,0,1,1.91-1.06,2.11,2.11,0,0,1,1,.07c.35.12.71.24,1,.37a4.65,4.65,0,0,1,2.81,2.87c.14.63,1.08.36,1-.27Z"/>
                  <path class="cls-19" d="M69.56,117.31c-.39,1.91,1.29,3.87,3.75,4.38s4.78-.63,5.17-2.54-1.29-3.88-3.75-4.38S70,115.4,69.56,117.31Z"/>
                  <g>
                    <path class="cls-15" d="M98.37,118.74h0a5.13,5.13,0,0,0,5.75-4.43l.39-2.71a5.14,5.14,0,0,0-4.31-5.84h0a5.15,5.15,0,0,0-5.76,4.43l-.38,2.72A5.12,5.12,0,0,0,98.37,118.74Z"/>
                    <path class="cls-4" d="M94.44,110.19a5.28,5.28,0,0,1,2.25-3.61,3.72,3.72,0,0,1,1.29,0c2.45.34,4.08,3.12,3.65,6.2s-2.77,5.31-5.23,5a3.53,3.53,0,0,1-.64-.16,5.2,5.2,0,0,1-1.7-4.63Z"/>
                  </g>
                  <path class="cls-4" d="M88.73,111.93c-.23.39-.48.77-.7,1.17h.43c-.17-.25-.34-.49-.53-.72l-.28-.33a1.31,1.31,0,0,1-.25-.33.19.19,0,0,0-.37,0,2.29,2.29,0,0,0-.11.52,3.09,3.09,0,0,0-.07.52c0,.17,0,.34,0,.51a1.18,1.18,0,0,0,0,.56.21.21,0,0,0,.36,0,1.51,1.51,0,0,0,.07-.56c0-.16,0-.33,0-.49s0-.32,0-.49a4.6,4.6,0,0,0,.06-.52l-.3.17a.92.92,0,0,1,.27.32l.22.35.43.74a.25.25,0,0,0,.43,0c.25-.38.47-.78.7-1.17a.25.25,0,0,0-.43-.25Z"/>
                  <g>
                    <path class="cls-15" d="M78.39,115.06h0a5.13,5.13,0,0,1-4.26-5.87l.4-2.72a5.13,5.13,0,0,1,5.78-4.38h0A5.13,5.13,0,0,1,84.58,108l-.4,2.71a5.15,5.15,0,0,1-5.79,4.39"/>
                    <path class="cls-4" d="M84.58,108a5.19,5.19,0,0,0-1.14-4.1,3.61,3.61,0,0,0-1.21-.41c-2.45-.36-4.81,1.84-5.26,4.92s1.15,5.88,3.6,6.24a5.08,5.08,0,0,0,.67,0,5.21,5.21,0,0,0,2.94-4Z"/>
                  </g>
                </g>
                <path class="cls-4" d="M119.41,110.36s-3.93,2.45-5.55,9.29l-3.46.07,2.53-12s-7.62-8.28-7-15.09c0,0-5.73,5.41-16.68,3.37,0,0,6.74-1.62,7.59-2.14,0,0-12.29,2.68-17.37,1l1.93-2.42S73,96.63,71.1,96.2c0,0-3.19,10.66-3.65,13.43l-1.61-.1.89-10.11s-1.75-.07-3.65,2.14c0,0,.11-5.9,2.13-8.86l-2.93.5s1.89-16.68,21.53-20.11,31.84,9.67,32.79,17.83c0,0,6,.78,7.22,6.69s-2.12,16.09-2.12,16.09Z"/>
                <g>
                  <path class="cls-5" d="M64,88.37s1.82-27.63,30.1-24.86c30,2.93,36,23.16,30.32,38.78C124.42,102.29,94,88.78,64,88.37Z"/>
                  <path class="cls-20" d="M64,88.37s1.82-27.63,30.1-24.86c30,2.93,36,23.16,30.32,38.78C124.42,102.29,94,88.78,64,88.37Z"/>
                  <path class="cls-6" d="M99.67,70.6c-1.51-3.53-9.85-3.32-9.85-3.32L87.6,84.2s6.43,1.66,9.21,1.11S101.18,74.12,99.67,70.6ZM94.16,81.06c-.34.37-1.94-.25-1.94-.25l1.44-9.53s1.84-.41,1.94,1.1S94.51,80.69,94.16,81.06Z"/>
                  <path class="cls-5" d="M64.74,86.91S56.15,94.78,58.56,98c3.26,4.31,6.35-1.69,14.9-3.12C96.3,91,97.91,107.54,105.55,105.16s9.55-4.52,8.63-8.33S85.2,75.84,64.74,86.91Z"/>
                  <path class="cls-20" d="M114.12,96.68c-1.84,4.37-7.51,6.92-10.56,6.46-3.36-.52-3.76-7.15-18.41-10.4s-21.88,5.64-24.78,4.79A2.43,2.43,0,0,1,58.49,95a3.09,3.09,0,0,0,.07,3c3.26,4.31,6.35-1.69,14.9-3.12C96.3,91,97.91,107.54,105.55,105.16s9.55-4.52,8.63-8.33C114.17,96.79,114.13,96.73,114.12,96.68Z"/>
                </g>
                <path class="cls-6" d="M81.38,143.31c-.47-1.09-3-1-3-1l-.69,5.23a9.72,9.72,0,0,0,2.85.34C81.35,147.69,81.85,144.4,81.38,143.31Zm-1.7,3.24c-.11.11-.6-.08-.6-.08l.44-2.95s.57-.12.6.34A13.33,13.33,0,0,1,79.68,146.55Z"/>
                <path class="cls-4" d="M83,134.52s3.26.7,3.66,2.11a6,6,0,0,1-.09,3s-4.7-1.67-4.82-3A2.56,2.56,0,0,1,83,134.52Z"/>
                <path class="cls-4" d="M91.84,135.89s-3.32-.4-4.14.8a6,6,0,0,0-.88,2.84s5-.06,5.52-1.24A2.54,2.54,0,0,0,91.84,135.89Z"/>
                <g>
                  <path class="cls-3" d="M124.91,129.56h0c.07-.59.41-3.71-.31-3.51s-1.46,3-1.47,3h0s.56-2.85-.27-3.08-1.44,2.58-1.62,3.31h0c0-.48-.12-1.91-.85-1.73-.51.12-.92,1.74-1.18,3.09a5.5,5.5,0,0,0-.79,1.21c-.62-.75-1.62-1.77-1.88-.85s.66,2.6,1.34,3.73a4.35,4.35,0,0,0,2,2.94,91.31,91.31,0,0,1-6.75,9.33,4.42,4.42,0,0,0,0,5.71h0a3.63,3.63,0,0,0,5.49.07c4.8-5.43,6-14.36,6-14.36,1.88-1.79,2.35-3.65,2.27-6.73a9.32,9.32,0,0,0-.06-4.19C126.13,126.13,125.09,129,124.91,129.56Z"/>
                  <g>
                    <path class="cls-5" d="M119.41,138.19a2.08,2.08,0,0,0-1.62.58c-.87.73-1.41,3-1.41,3s-6.81,5.63-5.21,10.37c1.22,3.59,4,4.85,6.94,1.75s5.77-9.17,5.77-9.17,1.72-1.71,1.33-3-1.07-1.41-1.07-1.41S121.83,139.36,119.41,138.19Z"/>
                    <g>
                      <path class="cls-5" d="M119.43,137.76l-.55,1.12s5.3,2.36,5.47,2a6.5,6.5,0,0,0,.27-1.38Z"/>
                      <path class="cls-21" d="M119.43,137.76l-.55,1.12s5.3,2.36,5.47,2a6.5,6.5,0,0,0,.27-1.38Z"/>
                    </g>
                  </g>
                </g>
              </g>
            </g>
          </g>
          <path class="cls-5" d="M85.57,10c-1.8,14.18,11.88,25.84,11.88,25.84s9.46-8.42,11.77-21.34C112.19-2.18,87.53-5.49,85.57,10ZM97.38,20.11c-10.78,0-9.22-15.2.26-15C106.65,5.27,108.15,20.11,97.38,20.11Z"/>
        </g>
      </g>
    </g>
  </g>
</svg>
