<svg width="1440" height="485" viewBox="0 0 1440 485" fill="none" xmlns="http://www.w3.org/2000/svg">
<path d="M-163 0L-49.0862 65.0083C21.7529 105.435 109.206 103.062 177.749 58.8539C235.233 21.7789 306.756 13.7482 371.03 37.1523L397.044 46.6247C456.875 68.4107 522.548 67.9334 582.055 45.2801L595.215 40.2702C662.085 14.8144 736.896 21.1036 798.577 57.3664C873.043 101.146 965.489 100.695 1039.52 56.1904L1042.93 54.1443C1100.39 19.6011 1169.6 10.398 1234.09 28.7225L1263.26 37.0096C1318.92 52.8252 1377.89 52.8682 1433.58 37.1337L1565 0V487.199H-163V0Z" fill="url(#paint0_linear_464_725)" fill-opacity="0.8"/>
<defs>
<linearGradient id="paint0_linear_464_725" x1="-163" y1="243.6" x2="1565" y2="243.6" gradientUnits="userSpaceOnUse">
<stop stop-color="#016A70"/>
<stop offset="0.5" stop-color="#016A70"/>
<stop offset="1" stop-color="#016A70"/>
</linearGradient>
</defs>
</svg>
