<svg width="1440" height="492" viewBox="0 0 1440 492" fill="none" xmlns="http://www.w3.org/2000/svg">
<path d="M-144 124.953L-36.5532 50.2925C33.4827 1.62758 127.954 8.29118 190.465 66.3054L220.107 93.8143C277.676 147.242 367.758 143.507 420.706 85.4966C474.267 26.816 565.649 23.7763 622.99 78.7679L637.725 92.899C694.442 147.291 784.239 146.353 839.807 90.7879C889.5 41.097 967.748 34.3892 1025.17 74.8974L1039.54 85.0294C1106.81 132.481 1198.74 123.202 1255.17 63.2642L1262.2 55.7931C1316.32 -1.69294 1401.96 -16.4137 1472.17 19.6999L1584 77.2204V491.998H-144V124.953Z" fill="url(#paint0_linear_464_724)" fill-opacity="0.75"/>
<defs>
<linearGradient id="paint0_linear_464_724" x1="-144" y1="225.355" x2="1584" y2="225.355" gradientUnits="userSpaceOnUse">
<stop stop-color="#9AD2D5"/>
<stop offset="0.5" stop-color="#016A70"/>
<stop offset="1" stop-color="#9AD2D5"/>
</linearGradient>
</defs>
</svg>
