<svg xmlns="http://www.w3.org/2000/svg" viewBox="0 0 359.35 147.49">
  <defs>
    <style>
      .cls-1 {
        fill: #97d19d;
      }

      .cls-2 {
        fill: #5ea466;
      }

      .cls-3 {
        fill: #5ebd75;
      }
    </style>
  </defs>
  <g id="Layer_2" data-name="Layer 2">
    <g id="OBJECTS">
      <g>
        <g>
          <path class="cls-1" d="M343.37,120.71c-.12.26-.22.52-.33.77a1,1,0,0,1-.52,1.34c-.49,1.26-1,2.52-1.41,3.8q8-.15,16,.11a61.86,61.86,0,0,0,1.73-8.19A76.06,76.06,0,0,0,343.37,120.71Z"/>
          <path class="cls-1" d="M354.26,100.91a103.61,103.61,0,0,0-10,17.76,76.87,76.87,0,0,1,14.87-1.93,23.48,23.48,0,0,0-.63-9.95A11.79,11.79,0,0,0,354.26,100.91Z"/>
          <path class="cls-1" d="M341,121.74a102.91,102.91,0,0,1-7.47-10.7,50,50,0,0,0-5.3,10.85c-2.52,7.11-5.48,15.36-6.69,22.8h13.3A104.57,104.57,0,0,1,341,121.74Z"/>
          <path class="cls-1" d="M334.85,109.75a98.09,98.09,0,0,0,6.92,10.07A104.49,104.49,0,0,1,352.69,100a9.12,9.12,0,0,0-1.45-.48c-3.83-.86-7.74,1.14-10.77,3.65a34.94,34.94,0,0,0-5.86,6.29A1.05,1.05,0,0,1,334.85,109.75Z"/>
          <path class="cls-1" d="M340.52,128.43a103.15,103.15,0,0,0-3.87,16.26h13.07a88.13,88.13,0,0,0,6.91-16.17C351.26,128.35,345.89,128.31,340.52,128.43Z"/>
        </g>
        <g>
          <path class="cls-2" d="M300.71,108.12a.8.8,0,0,1-.18.25q5.1,7.11,10.08,14.3a.87.87,0,0,1,.52-.17q7.56-.21,15.07-1c-1.31-2.41-2.63-4.8-4-7.19a3.58,3.58,0,0,0-1.41-1.63,3.26,3.26,0,0,0-2.43.11c-2.62.87-5.14,2.36-7.9,2.29s-5.68-2.79-4.56-5.31a6,6,0,0,1,2.47-2.37l6.14-4c.94-.6,2-1.37,2-2.49a3.58,3.58,0,0,0-.85-2.07c-1.87-2.69-3.74-5.39-5.65-8A177.94,177.94,0,0,0,300.71,108.12Z"/>
          <path class="cls-2" d="M327.12,123.19c-5.14.57-10.26.93-15.4,1.08q5.43,7.88,10.73,15.83c.65,1-.91,1.87-1.55.91Q296.42,104.2,269.08,69.4A15.54,15.54,0,0,0,267,74.61c-2.38,9.7-1.25,20,1.34,29.62a100.54,100.54,0,0,0,22.55,41.26l47.91.18Q333.16,134.32,327.12,123.19Z"/>
          <path class="cls-2" d="M299.37,106.75a180.26,180.26,0,0,1,9.55-17.48A138,138,0,0,0,300,78.17c-5-5.52-11-10.65-18.24-12.33-3.95-.92-8.56-.55-11.48,2.18Q285.24,87.07,299.37,106.75Z"/>
        </g>
      </g>
      <g>
        <path class="cls-3" d="M251.36,145.51a147.69,147.69,0,0,0-22.64-41.91,128.2,128.2,0,0,0-16.27-17.4c-6.2-5.47-13-10.72-20.6-14.07a35.47,35.47,0,0,0-12-3.16,29.61,29.61,0,0,0-12,2c-3.87,1.4-7.59,3.21-11.58,4.23a16.81,16.81,0,0,1-11.72-.93c-3.81-1.81-7.1-4.54-10.45-7.07-3.56-2.68-7.16-5.3-10.84-7.8a131.21,131.21,0,0,0-23-12.75C85,40.22,67.07,37.86,51.3,43.9a50,50,0,0,0-5.68,2.58c-1.71.91-.19,3.5,1.51,2.59,14.63-7.76,32.29-6.82,47.53-1.42a112.7,112.7,0,0,1,22.93,11.59c3.63,2.33,7.16,4.79,10.64,7.32s6.7,5.17,10.18,7.56a24.22,24.22,0,0,0,11.29,4.63c3.88.38,7.74-.67,11.35-2s7.38-3.11,11.25-4.1a24.82,24.82,0,0,1,12.11,0c8.08,2,15.23,6.87,21.62,12a123.61,123.61,0,0,1,16.64,16.19,140.51,140.51,0,0,1,23.77,39.95c.71,1.8,1.38,3.62,2,5.46s3.53,1,2.89-.8Z"/>
        <g>
          <path class="cls-3" d="M150.12,88a208.12,208.12,0,0,0-44.58,55.19,1,1,0,0,1-1.28.5c.29.64.59,1.28.88,1.93l145.93,1.9a196,196,0,0,0-14.23-17.24,1,1,0,0,1-.38.58c-9.54,7.56-22.2,4.36-30.52-3.4-7.73-7.22-14.8-19.9-8.36-30.05.78-1.24,2.76-.09,2,1.16-5.65,8.9.62,19.95,7.17,26.46,7.33,7.3,19.2,11.28,28.12,4.21a1.2,1.2,0,0,1,.8-.26c-14.25-15.33-31.84-30.7-46.46-40.84-3.73-2.59-7.77-5.14-12.31-5.4-6-.35-11.4,3.33-17.24,4.66a24.48,24.48,0,0,1-9.25.26A1.29,1.29,0,0,1,150.12,88Zm26.75-1.58a1.15,1.15,0,0,1,2.21.6,86.46,86.46,0,0,0-3.4,28.52c.45,8.88,1.56,20.81,8,27.57,1,1.06-.6,2.68-1.62,1.61-6.41-6.72-7.75-17.53-8.48-26.41A88.56,88.56,0,0,1,176.87,86.39Z"/>
          <path class="cls-3" d="M84.26,106.67a321.4,321.4,0,0,1,19.27,35.42.2.2,0,0,1,0-.08A210,210,0,0,1,147.7,87.07c-9.47-2.39-18.39-9.3-26.65-15.21-1.92-1.38-3.88-2.7-5.85-4A154.3,154.3,0,0,0,84.26,106.67Z"/>
          <path class="cls-3" d="M90.65,121.93a1,1,0,0,1-.71,0A197.23,197.23,0,0,0,1,108a1,1,0,0,1-1-.52c.16,12.47,2.9,25,7,36.88l95.66,1.25Q97.13,133.48,90.65,121.93Z"/>
          <path class="cls-3" d="M77.22,95.93c.45.29.92.56,1.37.85a1.12,1.12,0,0,1,.31,1.63q2,3,4,6.08a155.93,155.93,0,0,1,30.34-37.91A178.13,178.13,0,0,0,82.82,51c-13-5.16-27.32-8.79-41-5.8A44,44,0,0,0,36,47,324,324,0,0,1,77.22,95.93Z"/>
          <path class="cls-3" d="M1,105.66a198.9,198.9,0,0,1,88.08,13.46q-6.32-11-13.48-21.53a412.19,412.19,0,0,0-60.7-31c-1.34-.55-.75-2.76.61-2.2A414.29,414.29,0,0,1,72.35,93,321.46,321.46,0,0,0,33.69,47.88C18.39,54.55,7,69.57,2.59,85.92A77.56,77.56,0,0,0,0,106.35,1.13,1.13,0,0,1,1,105.66Z"/>
        </g>
      </g>
      <path class="cls-2" d="M223.75,17.57S222.36-1.93,209.12.16C209.12.16,204.94,16.18,223.75,17.57Z"/>
      <path class="cls-2" d="M147.43,65.19S158,55.79,151,49.13C151,49.13,139.93,53.8,147.43,65.19Z"/>
      <path class="cls-1" d="M243.3,74.69s-7.54-8.2-12.7-2.58C230.6,72.11,234.42,80.74,243.3,74.69Z"/>
      <path class="cls-1" d="M256.84,126.33s5.38-18.48,25.44-10.66C282.28,115.67,275.26,139,256.84,126.33Z"/>
    </g>
  </g>
</svg>
