<svg xmlns="http://www.w3.org/2000/svg" viewBox="0 0 219.04 245.74">
  <defs>
    <style>
      .cls-1 {
        fill: #3b7172;
      }

      .cls-2 {
        fill: #4d878b;
      }

      .cls-3 {
        fill: #efbb5a;
      }

      .cls-4 {
        fill: #e28572;
      }

      .cls-5 {
        fill: #804a53;
      }

      .cls-6 {
        fill: #dd745c;
      }

      .cls-7 {
        fill: #fff;
      }

      .cls-8 {
        fill: #683742;
      }

      .cls-9 {
        fill: #e99832;
      }

      .cls-10 {
        fill: #f7e0d6;
      }

      .cls-11 {
        fill: #357074;
      }

      .cls-12 {
        fill: #265a5b;
      }

      .cls-13 {
        fill: #3f7b7f;
      }

      .cls-14 {
        fill: #2f6566;
      }

      .cls-15 {
        fill: #49467a;
      }

      .cls-16 {
        fill: #32305f;
      }

      .cls-17 {
        fill: #d13c34;
      }

      .cls-18 {
        fill: #d16250;
      }

      .cls-19 {
        fill: #090a10;
      }

      .cls-20 {
        fill: #76a9bf;
      }

      .cls-21 {
        fill: #5c8495;
      }

      .cls-22 {
        fill: #f7e1d6;
      }
    </style>
  </defs>
  <g id="Layer_2" data-name="Layer 2">
    <g id="OBJECT">
      <g>
        <g>
          <path class="cls-1" d="M181.86,173.91a.63.63,0,0,1-.13-.86,90,90,0,0,0,18.16-55.25.61.61,0,0,1,.61-.62.6.6,0,0,1,.62.6,91.27,91.27,0,0,1-18.41,56A.59.59,0,0,1,181.86,173.91Z"/>
          <g>
            <path class="cls-2" d="M198.89,101.67h0a14.58,14.58,0,0,1,6.12,19,15.39,15.39,0,0,1-4.83,5.67h0C192.92,118.73,192.4,110,198.89,101.67Z"/>
            <path class="cls-1" d="M200.39,123a.3.3,0,0,0,.32-.29,90.21,90.21,0,0,0-.79-16.83.32.32,0,0,0-.36-.25.3.3,0,0,0-.25.34,89.79,89.79,0,0,1,.79,16.71A.3.3,0,0,0,200.39,123Z"/>
          </g>
          <g>
            <path class="cls-2" d="M181.05,122.34h0c5.19-.46,9.95.76,13.14,3.74a12.42,12.42,0,0,1,3.48,5.57,14.56,14.56,0,0,1,.6,3.48,18.23,18.23,0,0,1-.34,3.77h0a18.78,18.78,0,0,1-12.46-5.71,15.51,15.51,0,0,1-3.34-5,12.75,12.75,0,0,1-.86-2.82A17.22,17.22,0,0,1,181.05,122.34Z"/>
            <path class="cls-1" d="M195.88,136.35a.3.3,0,0,0,.05-.42,83.71,83.71,0,0,0-11.46-11.31.35.35,0,0,0-.43,0,.22.22,0,0,0,0,.35,82.45,82.45,0,0,1,11.41,11.33A.31.31,0,0,0,195.88,136.35Z"/>
          </g>
          <g>
            <path class="cls-2" d="M178,139.81h0c5.18.83,9.4,3.15,11.84,6.84a13.06,13.06,0,0,1,2,6.26,14.46,14.46,0,0,1-1.55,7.07h0a18.84,18.84,0,0,1-10.66-8.57A14.69,14.69,0,0,1,178,139.81Z"/>
            <path class="cls-1" d="M189,157a.29.29,0,0,0,.15-.39c-1.24-2.5-2.53-4.9-3.91-7.18s-2.86-4.49-4.46-6.59a.35.35,0,0,0-.42-.11.22.22,0,0,0-.07.35c1.55,2.09,3,4.28,4.44,6.59s2.68,4.69,3.86,7.18A.31.31,0,0,0,189,157Z"/>
          </g>
          <g>
            <path class="cls-2" d="M219,132.61h0a15.85,15.85,0,0,0-13.78,1.78,20.58,20.58,0,0,0-8.48,11.31h0a16.46,16.46,0,0,0,7.08,1.92,13.61,13.61,0,0,0,3.49-.35,12.91,12.91,0,0,0,3.24-1.27,14.79,14.79,0,0,0,5.45-5.16A20.31,20.31,0,0,0,219,132.61Z"/>
            <path class="cls-1" d="M199.82,144.38A.31.31,0,0,1,200,144c2.53-1.22,5.17-2.53,7.64-4q1.88-1.11,3.78-2.31c1.26-.8,2.45-1.64,3.69-2.51a.26.26,0,0,1,.41.11.38.38,0,0,1-.11.49,97,97,0,0,1-15.16,8.81A.3.3,0,0,1,199.82,144.38Z"/>
          </g>
          <g>
            <path class="cls-2" d="M212.28,159h0a15,15,0,0,0-6.92-2.43,17.52,17.52,0,0,0-6.86.8,20.19,20.19,0,0,0-6.1,3.32,22,22,0,0,0-4.89,5.58h0a16.67,16.67,0,0,0,6.39,3.62,13.27,13.27,0,0,0,6.91.08C205.45,168.86,209.87,165,212.28,159Z"/>
            <path class="cls-1" d="M190.75,165.76a.33.33,0,0,1,.26-.37c1.39-.27,2.82-.55,4.22-.89s2.78-.72,4.19-1.12c2.86-.79,5.59-1.78,8.43-2.86a.28.28,0,0,1,.38.21.41.41,0,0,1-.24.45c-2.82,1.09-5.6,2-8.46,2.84-1.41.4-2.8.78-4.19,1.11s-2.84.62-4.24.88A.3.3,0,0,1,190.75,165.76Z"/>
          </g>
        </g>
        <g>
          <path class="cls-1" d="M199.35,82.24l-.94-.34c-.42,1.27-.89,2.55-1.35,3.79a122.39,122.39,0,0,0-7.19-13.53,5.39,5.39,0,0,1-.77-2.24v0l-1,.16a6.48,6.48,0,0,0,.9,2.64c1.06,1.73,2.09,3.48,3,5.27-2.29-.67-4.59-1.25-6.88-1.76l-.25.93q3.88.87,7.8,2a124.07,124.07,0,0,1,6.93,15.54l.93-.34c-.93-2.49-1.9-5-3-7.38C198.24,85.42,198.8,83.85,199.35,82.24Z"/>
          <g>
            <path class="cls-2" d="M183.32,50.84h0A14.77,14.77,0,0,0,181.87,62a14.41,14.41,0,0,0,7,8.59h0a12.22,12.22,0,0,0,2.43-11A13.47,13.47,0,0,0,183.32,50.84Z"/>
            <path class="cls-1" d="M188.37,68a.25.25,0,0,1-.29-.2,121.14,121.14,0,0,0-3.75-13.41.24.24,0,0,1,.15-.32.27.27,0,0,1,.33.18,121.17,121.17,0,0,1,3.75,13.45A.25.25,0,0,1,188.37,68Z"/>
          </g>
          <g>
            <path class="cls-2" d="M171.91,73.64h0a11.79,11.79,0,0,0,7.75,6.23,14.67,14.67,0,0,0,10.91-1.69h0a11.4,11.4,0,0,0-8-7.26A12.83,12.83,0,0,0,171.91,73.64Z"/>
            <path class="cls-1" d="M188.08,77.37a.26.26,0,0,1-.32.16A104.81,104.81,0,0,0,175.1,74.4a.21.21,0,0,1-.17-.27.28.28,0,0,1,.3-.18,107.11,107.11,0,0,1,12.69,3.12A.24.24,0,0,1,188.08,77.37Z"/>
          </g>
          <g>
            <path class="cls-2" d="M204.61,66h0a13.93,13.93,0,0,1,1.52,12.09,12.2,12.2,0,0,1-8.43,7.33h0a15.14,15.14,0,0,1-.84-11.33A13,13,0,0,1,204.61,66Z"/>
            <path class="cls-1" d="M198.78,83a.24.24,0,0,0,.32-.13,128.05,128.05,0,0,0,4.74-13.17.3.3,0,0,0-.17-.35.23.23,0,0,0-.32.15,124.62,124.62,0,0,1-4.7,13.16A.26.26,0,0,0,198.78,83Z"/>
          </g>
        </g>
        <g>
          <path class="cls-1" d="M159.89,27.89a.36.36,0,0,0-.35.38L160,39l-12-9a.37.37,0,0,0-.52.08.36.36,0,0,0,.08.51l8.7,6.54-8,2a.36.36,0,0,0-.27.44.37.37,0,0,0,.45.27L157,37.76s0,0,.06,0l19.24,14.44a.38.38,0,0,0,.52-.07.37.37,0,0,0-.08-.52l-16-12-.53-11.36A.37.37,0,0,0,159.89,27.89Z"/>
          <g>
            <path class="cls-2" d="M140.07,24.47h0a9.48,9.48,0,0,1,11.88,9h0A9.47,9.47,0,0,1,140.07,24.47Z"/>
            <path class="cls-1" d="M150.38,32.26a.19.19,0,0,0,0-.26l-8.07-6.09a.18.18,0,0,0-.26,0,.19.19,0,0,0,0,.26l8.07,6.09A.19.19,0,0,0,150.38,32.26Z"/>
          </g>
          <g>
            <path class="cls-2" d="M139.39,41.72h0a9.48,9.48,0,0,1,14.49-3.45h0A9.48,9.48,0,0,1,139.39,41.72Z"/>
            <path class="cls-1" d="M152,38.73a.18.18,0,0,0-.22-.13l-9.84,2.34a.18.18,0,0,0-.14.22.2.2,0,0,0,.23.14L151.82,39A.18.18,0,0,0,152,38.73Z"/>
          </g>
          <g>
            <path class="cls-2" d="M159.48,20.15h0A9.48,9.48,0,0,0,160.22,35h0A9.47,9.47,0,0,0,159.48,20.15Z"/>
            <path class="cls-1" d="M160.12,33.05a.19.19,0,0,1-.19-.18l-.5-10.1a.18.18,0,0,1,.17-.19.19.19,0,0,1,.2.18l.49,10.09A.18.18,0,0,1,160.12,33.05Z"/>
          </g>
        </g>
        <g>
          <path class="cls-1" d="M25.05,87.47a.62.62,0,0,1-.48-.76c4.49-20.5,18-38.62,36-49.32a.64.64,0,0,1,.87.22.64.64,0,0,1-.22.88C43.54,49,30.22,66.85,25.82,87A.66.66,0,0,1,25.05,87.47Z"/>
          <g>
            <path class="cls-2" d="M76.28,31h0c-4.41,10.1-12,14-22.81,11.86h0a15.42,15.42,0,0,1,2.4-7.44A15,15,0,0,1,76.28,31Z"/>
            <path class="cls-1" d="M56.26,40.9a.32.32,0,0,0,.44.08,74.92,74.92,0,0,1,15.4-8.15.3.3,0,0,0,.19-.4.33.33,0,0,0-.42-.19,75.4,75.4,0,0,0-15.53,8.21A.31.31,0,0,0,56.26,40.9Z"/>
          </g>
          <g>
            <path class="cls-2" d="M44.4,24.55h0A15.27,15.27,0,0,1,48.57,31a18.54,18.54,0,0,1,.86,7.17,21.85,21.85,0,0,1-1.79,7.07,21.1,21.1,0,0,1-1.83,3.31,19.51,19.51,0,0,1-2.43,3.17h0c-4.65-3-7.37-7.27-7.43-12.37A16.35,16.35,0,0,1,38,31.56a21.9,21.9,0,0,1,2.67-3.69,20.11,20.11,0,0,1,1.71-1.75C43,25.58,43.69,25.05,44.4,24.55Z"/>
            <path class="cls-1" d="M43,48.27a.35.35,0,0,0,.3-.36,84,84,0,0,1,.58-18.45.28.28,0,0,0-.31-.33.44.44,0,0,0-.4.37A83,83,0,0,0,42.67,48,.3.3,0,0,0,43,48.27Z"/>
          </g>
          <g>
            <path class="cls-2" d="M23.08,45h0a16.38,16.38,0,0,1,8.83,11.48,20.24,20.24,0,0,1,.39,7.28,24.42,24.42,0,0,1-2.11,7.48h0c-5.29-1.43-9.25-4.74-10.8-9.61S18.84,50.49,23.08,45Z"/>
            <path class="cls-1" d="M28.8,68A.34.34,0,0,0,29,67.6C27.89,64.87,26.91,62,26.07,59a92.5,92.5,0,0,1-2-9.18.28.28,0,0,0-.39-.22.45.45,0,0,0-.29.47c.53,3.16,1.24,6.25,2,9.19a89.87,89.87,0,0,0,2.95,8.62A.3.3,0,0,0,28.8,68Z"/>
          </g>
          <g>
            <path class="cls-2" d="M63.46,60.83h0a22.62,22.62,0,0,0-5.12-5.69,14.35,14.35,0,0,0-6.26-2.79c-4.46-.82-9.36,1-12.79,5.28h0a19.59,19.59,0,0,0,6.21,4.48,20.63,20.63,0,0,0,3.29,1.18,21.44,21.44,0,0,0,3.33.64,16.65,16.65,0,0,0,3.15,0,17.25,17.25,0,0,0,3-.46A13.06,13.06,0,0,0,63.46,60.83Z"/>
            <path class="cls-1" d="M42.68,57.57a.3.3,0,0,1,.31-.3,69.33,69.33,0,0,1,8.47.61c1.38.19,2.74.4,4.07.64s2.69.58,4,.91a.38.38,0,0,1,.28.35.21.21,0,0,1-.29.21A70.65,70.65,0,0,0,43,57.88.32.32,0,0,1,42.68,57.57Z"/>
          </g>
          <g>
            <path class="cls-2" d="M52.08,74h0a22.52,22.52,0,0,0-6.58-3.92,15.84,15.84,0,0,0-3.45-.86,13.51,13.51,0,0,0-6.67.91,12.12,12.12,0,0,0-3,1.82,14.47,14.47,0,0,0-4.38,6.14h0a19.64,19.64,0,0,0,7.28,2.38,21.39,21.39,0,0,0,6.87-.24C46.41,79.33,49.89,77.37,52.08,74Z"/>
            <path class="cls-1" d="M31.3,77a.31.31,0,0,1,.2-.39c1.39-.41,2.72-.8,4.1-1.12s2.78-.58,4.14-.82a64.79,64.79,0,0,1,8.13-.9.39.39,0,0,1,.37.25.22.22,0,0,1-.21.29c-1.33.07-2.68.18-4.06.32s-2.67.37-4,.6-2.75.51-4.13.84-2.71.71-4.08,1.13A.34.34,0,0,1,31.3,77Z"/>
          </g>
        </g>
        <g>
          <path class="cls-1" d="M25.31,135.8l-1-.52c-.79,1.28-1.49,2.58-2.22,3.92a90.78,90.78,0,0,1-3.51-17,5.46,5.46,0,0,1,.38-2.65l0-.05L18,119.1a6.38,6.38,0,0,0-.44,3.18c.25,2.34.58,4.67,1,7-1.14-.79-2.25-1.6-3.35-2.45s-2.22-1.73-3.29-2.65l-.69,1a91.49,91.49,0,0,0,7.63,5.73,91.6,91.6,0,0,0,6,18.77l1-.45c-1.19-2.77-2.31-5.57-3.24-8.44C23.46,139,24.38,137.39,25.31,135.8Z"/>
          <g>
            <path class="cls-2" d="M27.4,100.25h0a12.77,12.77,0,0,0-10.11,7.18,13.26,13.26,0,0,0,1.14,12.67h0a17.39,17.39,0,0,0,9-8.46A14.09,14.09,0,0,0,27.4,100.25Z"/>
            <path class="cls-1" d="M19.35,117.24a.28.28,0,0,1-.18-.36,81.65,81.65,0,0,1,6.08-13.58.29.29,0,0,1,.38-.1.25.25,0,0,1,.12.35,82.47,82.47,0,0,0-6.05,13.51A.29.29,0,0,1,19.35,117.24Z"/>
          </g>
          <g>
            <path class="cls-2" d="M.16,111.39h0c-.72,5.77,1.09,10.94,4.28,14.12A13.16,13.16,0,0,0,16.81,129h0A19.3,19.3,0,0,0,12,116.65,15.65,15.65,0,0,0,.16,111.39Z"/>
            <path class="cls-1" d="M14.44,127a.28.28,0,0,1-.4,0A93.93,93.93,0,0,1,2.65,115.14a.38.38,0,0,1,0-.47.26.26,0,0,1,.4,0A94.32,94.32,0,0,0,14.4,126.56.3.3,0,0,1,14.44,127Z"/>
          </g>
          <g>
            <path class="cls-2" d="M36.72,122.23h0a13.44,13.44,0,0,1-2.93,10.44A17.29,17.29,0,0,1,22.89,139h0a12.39,12.39,0,0,1,2.19-12.06C27.75,123.89,31.89,122.29,36.72,122.23Z"/>
            <path class="cls-1" d="M24.52,136.5a.29.29,0,0,0,.39-.09A82.92,82.92,0,0,1,34.27,125a.22.22,0,0,0,0-.34.31.31,0,0,0-.39,0,83.2,83.2,0,0,0-9.41,11.45A.27.27,0,0,0,24.52,136.5Z"/>
          </g>
        </g>
        <g>
          <path class="cls-1" d="M56.32,177.82a.48.48,0,0,0-.46.42c-.2,2-.36,4.16-.41,6.25,0,1.06,0,2.12,0,3.2s.05,2.13.09,3.21c-2.42-1.78-4.68-3.76-6.91-5.77s-4.32-4.17-6.29-6.44a.44.44,0,1,0-.66.59,92.73,92.73,0,0,0,9.46,9.24,90.36,90.36,0,0,1-10,1.35.42.42,0,0,0-.38.5.53.53,0,0,0,.54.43c1.81-.14,3.62-.36,5.41-.62s3.52-.55,5.26-.91c0,0,0,0,.06,0a90.78,90.78,0,0,0,25.18,14.7.44.44,0,0,0,.57-.25.45.45,0,0,0-.26-.58,90.34,90.34,0,0,1-21-11.51,85.85,85.85,0,0,1,.27-13.36A.35.35,0,0,0,56.32,177.82Z"/>
          <g>
            <path class="cls-2" d="M34.76,169.64h0c7.58,1,11.91,6.28,11.47,13.87h0a11.37,11.37,0,0,1-5.33-.82,10.85,10.85,0,0,1-4.1-3.06A11,11,0,0,1,34.76,169.64Z"/>
            <path class="cls-1" d="M44.56,181.8a.22.22,0,0,0,0-.31,91.9,91.9,0,0,1-7.81-9.37.21.21,0,0,0-.3-.06.22.22,0,0,0-.06.31,90.83,90.83,0,0,0,7.85,9.43A.22.22,0,0,0,44.56,181.8Z"/>
          </g>
          <g>
            <path class="cls-2" d="M29.26,190.35h0a11.21,11.21,0,0,1,9-4.49,14.74,14.74,0,0,1,9.8,3.76h0a10.57,10.57,0,0,1-8.41,5.46A13.14,13.14,0,0,1,29.26,190.35Z"/>
            <path class="cls-1" d="M45.62,189.92a.25.25,0,0,0-.27-.2c-2.08.24-4.14.37-6.29.48s-4.26.1-6.45.06a.19.19,0,0,0-.2.23.27.27,0,0,0,.27.25,97.25,97.25,0,0,0,12.75-.57A.21.21,0,0,0,45.62,189.92Z"/>
          </g>
          <g>
            <path class="cls-2" d="M57.69,169.17h0a12.46,12.46,0,0,0-5.44,8.25,9.59,9.59,0,0,0,3.6,8.7h0a13.52,13.52,0,0,0,4.49-8.82,10.71,10.71,0,0,0-.46-4.36A9.68,9.68,0,0,0,57.69,169.17Z"/>
            <path class="cls-1" d="M55.89,183.79a.19.19,0,0,1-.2-.21,81.54,81.54,0,0,1,1.22-11.53.24.24,0,0,1,.23-.2.16.16,0,0,1,.17.2,82.9,82.9,0,0,0-1.2,11.52A.22.22,0,0,1,55.89,183.79Z"/>
          </g>
        </g>
      </g>
      <g>
        <path class="cls-3" d="M135.06,85.58,95.66,76.4l-39.4,9.18,2.65,42.91A325.49,325.49,0,0,1,58.53,174l-2.27,28.92L62.79,206a76.8,76.8,0,0,0,65.73,0l6.54-3.09L132.79,174a325.49,325.49,0,0,1-.38-45.47Z"/>
        <g>
          <g>
            <path class="cls-4" d="M95.67,74.11h0a12.89,12.89,0,0,1-9.56-4.67V82a9.56,9.56,0,1,0,19.11,0V69.44A12.87,12.87,0,0,1,95.67,74.11Z"/>
            <path d="M86.11,56.7V69.44a12.89,12.89,0,0,0,9.56,4.67h0a12.87,12.87,0,0,0,9.55-4.67V56.7Z"/>
          </g>
          <g>
            <path class="cls-5" d="M75,48.63c-3.51-6-5.57-12.79-7.39-19.54-1.12-4.17-1.82-8.95.6-12.52,2.31-3.41,6.72-4.64,9.85-7.32C80.74,7,82.45,3.63,85.39,1.71,88.7-.45,93.09-.42,96.78,1s6.78,4,9.56,6.82A12,12,0,0,1,115,5.89a11,11,0,0,1,7.18,4.55c1.94,2.82,2.44,6.38,2.52,9.81a49.44,49.44,0,0,1-8.34,28.6Z"/>
            <g>
              <path class="cls-4" d="M79.84,49.52a7.19,7.19,0,1,1-7.19-7.18A7.18,7.18,0,0,1,79.84,49.52Z"/>
              <path class="cls-6" d="M76.79,49.52a4.14,4.14,0,1,1-4.14-4.14A4.14,4.14,0,0,1,76.79,49.52Z"/>
            </g>
            <g>
              <path class="cls-4" d="M111.49,49.52a7.19,7.19,0,1,0,7.19-7.18A7.18,7.18,0,0,0,111.49,49.52Z"/>
              <path class="cls-6" d="M114.54,49.52a4.14,4.14,0,1,0,4.14-4.14A4.14,4.14,0,0,0,114.54,49.52Z"/>
            </g>
            <path class="cls-4" d="M106.72,21c-2.75,3.55-7.1,5.49-11.44,6.64s-8.85,1.69-13.1,3.14a21.13,21.13,0,0,0-7.17,4V48.63A20.66,20.66,0,0,0,95.67,69.29h0a20.65,20.65,0,0,0,20.65-20.66V33.79A30.2,30.2,0,0,1,106.72,21Z"/>
            <path class="cls-5" d="M85.77,33.37a8.38,8.38,0,0,0-5.69,3.39l12.07-1.58A8.38,8.38,0,0,0,85.77,33.37Z"/>
            <path d="M88.08,40.81a1.61,1.61,0,1,1-1.6-1.61A1.6,1.6,0,0,1,88.08,40.81Z"/>
            <path class="cls-5" d="M105.56,33.37a8.4,8.4,0,0,1,5.7,3.39L99.18,35.18A8.38,8.38,0,0,1,105.56,33.37Z"/>
            <path d="M103.25,40.81a1.61,1.61,0,1,0,1.6-1.61A1.6,1.6,0,0,0,103.25,40.81Z"/>
            <path class="cls-6" d="M98.66,51.5H93.4a8.8,8.8,0,0,0,1,1.63,2.39,2.39,0,0,0,1.46.9,2.34,2.34,0,0,0,1.84-.62C98.2,53,98.36,52.1,98.66,51.5Z"/>
            <path class="cls-7" d="M104.65,54.83c-2.16,2-13.82,2.9-16.26,1.27a8.76,8.76,0,0,0,4.78,5.14,8,8,0,0,0,6.68-.1C102.13,60,103.78,57.22,104.65,54.83Z"/>
            <path class="cls-8" d="M93.16,18.85A12.53,12.53,0,0,0,101.23,13L83.38,17A12.55,12.55,0,0,0,93.16,18.85Z"/>
            <path class="cls-8" d="M94.3,9.78a7.42,7.42,0,0,0,6.43-.71,66.71,66.71,0,0,1-11-3.88A7.39,7.39,0,0,0,94.3,9.78Z"/>
            <path class="cls-8" d="M113.7,20.62a9,9,0,0,0,7.2,3.11,87.27,87.27,0,0,1-9.29-10.67A9,9,0,0,0,113.7,20.62Z"/>
          </g>
        </g>
        <g>
          <path class="cls-4" d="M135.06,138.62l6.21,23.68a9.32,9.32,0,0,0,10.61,6.82h0a9.32,9.32,0,0,0,7.48-11.3l-5.77-24.67Z"/>
          <polygon points="135.06 138.62 153.59 133.15 153.99 134.85 136.7 144.88 135.06 138.62"/>
        </g>
        <path class="cls-3" d="M135.06,85.58h0a14.36,14.36,0,0,1,10.13,9.28l12.67,37L133.77,139l-1.36-10.51Z"/>
        <path class="cls-9" d="M133.69,107.78h0a38.79,38.79,0,0,1,1.95,21.94L133.77,139l-1.36-10.51Z"/>
        <path class="cls-3" d="M56.26,85.58h0a14.36,14.36,0,0,0-10.13,9.28l-12.67,37L57.55,139l1.36-10.51Z"/>
        <path class="cls-4" d="M56.26,138.62,50.05,162.3a9.32,9.32,0,0,1-10.61,6.82h0A9.32,9.32,0,0,1,32,157.82l5.77-24.67Z"/>
        <path class="cls-9" d="M57.63,107.78h0a38.7,38.7,0,0,0-2,21.94L57.55,139l1.36-10.51Z"/>
        <polygon points="37.73 133.15 37.23 135.28 54.5 145.32 56.26 138.62 37.73 133.15"/>
        <path class="cls-4" d="M71.41,107.11,64.2,119,33.8,155.14a8.86,8.86,0,0,0,1.44,12.79h0a8.87,8.87,0,0,0,13.14-2.85l23-42.47L80.34,117l-1.53-1.48Z"/>
        <path d="M74.09,110.15l.13,1.3A8.44,8.44,0,0,1,70.93,119h0L76.15,118l2.66-2.47Z"/>
        <g>
          <path class="cls-9" d="M97.08,202.56a116,116,0,0,1-17.69-.6,141.53,141.53,0,0,1-15.52-2.66A63.88,63.88,0,0,0,79,204.46a73,73,0,0,0,36.27-1.62,63.56,63.56,0,0,0,14.6-6.49,139.85,139.85,0,0,1-15.23,4A115.16,115.16,0,0,1,97.08,202.56Z"/>
          <path class="cls-9" d="M82.81,165.54c-5.25,1.65-10.29,2.87-14.73,3.84a68.22,68.22,0,0,0,15.34-1.47,78.76,78.76,0,0,0,31.82-14.58,68.42,68.42,0,0,0,11.13-10.66c-3.64,2.73-7.86,5.75-12.52,8.65a137.2,137.2,0,0,1-15.06,8.13A137.2,137.2,0,0,1,82.81,165.54Z"/>
          <path class="cls-9" d="M75.84,150.4a45.12,45.12,0,0,0,16.89,7.34,98.48,98.48,0,0,1-15.84-8.84,99,99,0,0,1-13.75-11.83A45.32,45.32,0,0,0,75.84,150.4Z"/>
          <path class="cls-9" d="M55.8,101.19a29.57,29.57,0,0,0-3.95-6.44,30.78,30.78,0,0,0,4.46,8.46,29,29,0,0,0,1.07,3.29h0A48.16,48.16,0,0,0,54.55,90,47.08,47.08,0,0,0,55.8,101.19Z"/>
          <path class="cls-9" d="M139.48,94.75a30,30,0,0,0-3.95,6.44A47.08,47.08,0,0,0,136.78,90,48.16,48.16,0,0,0,134,106.5a29,29,0,0,0,1.07-3.29A30.78,30.78,0,0,0,139.48,94.75Z"/>
          <path class="cls-9" d="M88.85,93.58a12.56,12.56,0,0,0,6.43,2.13A11.68,11.68,0,0,0,101,94.56a15.47,15.47,0,0,1-5.65.23A13.6,13.6,0,0,1,85.32,88a15.38,15.38,0,0,1-1.86-5.34,11.62,11.62,0,0,0,1,5.76A12.56,12.56,0,0,0,88.85,93.58Z"/>
          <path class="cls-9" d="M38.74,129a50.3,50.3,0,0,0,8.92,3.44,51.23,51.23,0,0,0,9.39,1.83c-2.51-.84-5.82-1.79-9.12-2.74S41.32,129.62,38.74,129Z"/>
          <path class="cls-9" d="M153.15,130.26a96.87,96.87,0,0,0-19,4A97,97,0,0,0,153.15,130.26Z"/>
        </g>
        <g>
          <path class="cls-10" d="M101.85,92.58l-.18-.18L107.93,84l-8.45,6.26L99.3,90l5.54-8.23L98,88.68l-1.8,1.8a3.71,3.71,0,0,0-1,3.3,2.88,2.88,0,0,1-.79,2.67L66.23,122.31a2.37,2.37,0,0,0-.07,3.41h0a2.36,2.36,0,0,0,3.41-.07L95.43,97.54a2.88,2.88,0,0,1,2.67-.79,3.71,3.71,0,0,0,3.3-1l1.8-1.8L110.08,87Z"/>
          <g>
            <path class="cls-2" d="M101.57,85.55a4.6,4.6,0,0,1,1.34,2.62,3.72,3.72,0,0,0,1.52,2.42c1,.52,2.34,0,3.19.88.66.76.45,1.88.85,2.77.35.71,1,1.49,1.76,1.38a2.2,2.2,0,0,1,1.11-.06,1.93,1.93,0,0,1,.86.92c.22.39.34.83.58,1.2.51.8,1.44,2.09,2.81,1.65s1.26-2.19,1-3.2a11.48,11.48,0,0,0-.52-1.38,2.3,2.3,0,0,1-.21-1.38c.11-.43.43-.62.69-.91.47-.53.18-1.8-.39-2.61-.67-1-1.89-1.44-2.42-2.5-.69-1.3.23-2.43-.23-3.82A5,5,0,0,0,110.81,81a10,10,0,0,1-3.11-1.92c-.78-.86-1.1-1.92-1.85-2.81a5.11,5.11,0,0,0-4.59-1.66c-1.41.28-2.48,1.69-3.37,2.53-.36,1.18-1.15,2.77-1,4.06a4.34,4.34,0,0,0,2.18,3.33A13,13,0,0,1,101.57,85.55Z"/>
            <path class="cls-1" d="M105.35,89.12a.13.13,0,0,0,.16-.13,39.32,39.32,0,0,0-.49-6.13,43.61,43.61,0,0,1,5.58,6.7,42.25,42.25,0,0,1-.45,4.3.22.22,0,0,0,.13.22.11.11,0,0,0,.17-.09,36.42,36.42,0,0,0,.44-4,42.24,42.24,0,0,1,3.61,6.85c0,.09.13.15.2.12s.1-.13.06-.23a40.75,40.75,0,0,0-4.3-7.89,36.7,36.7,0,0,1,4,1.6.12.12,0,0,0,.18-.1.26.26,0,0,0-.15-.25,38.75,38.75,0,0,0-4.3-1.7,41.39,41.39,0,0,0-5.2-6,41.73,41.73,0,0,1,6.88,1.52c.1,0,.17,0,.16-.12a.31.31,0,0,0-.19-.24A40.1,40.1,0,0,0,104.54,82a41,41,0,0,0-4.84-3.89.17.17,0,0,0-.24,0,.18.18,0,0,0,.08.23,41,41,0,0,1,5.09,4.13,36.65,36.65,0,0,1,.56,6.44A.2.2,0,0,0,105.35,89.12Z"/>
          </g>
        </g>
        <g>
          <path class="cls-4" d="M71.41,107.11l12.86-8.9a2.52,2.52,0,0,1,3.32.41l4.87,5.56a1.91,1.91,0,0,1,.44,1.52l-.52,3.62a2.35,2.35,0,0,1-.91,1.52l-10,7.36a4.23,4.23,0,0,1-5.32-.23h0l2.66-2.47Z"/>
          <path class="cls-4" d="M91.47,110.84l.47.82a2.93,2.93,0,0,1-.91,3.88L88.85,117a1.71,1.71,0,0,1-2.42-.53h0a1.71,1.71,0,0,1,.45-2.26Z"/>
        </g>
        <g>
          <path class="cls-10" d="M140.17,133c0,4.95-18.9,17.3-43.48,17.3S51.16,138,51.16,133s19.93-9,44.51-9S140.17,128.05,140.17,133Z"/>
          <ellipse class="cls-7" cx="95.67" cy="133" rx="44.5" ry="8.96"/>
          <g>
            <g>
              <path class="cls-11" d="M110.22,124.57a4.69,4.69,0,0,1-3.28-1.17c-1-.65-2-1.31-3.1-1-1.27.35-2.16,2-3.65,1.74-1.21-.26-1.71-1.63-2.67-2.26a2.5,2.5,0,0,0-2.72-.26c-.38.3-.7.72-1.21.81a2.21,2.21,0,0,1-1.51-.48c-.47-.31-.86-.72-1.34-1-1-.61-2.78-1.61-4.2-.39s-.35,3.35.61,4.42a14.75,14.75,0,0,0,1.5,1.35,3.72,3.72,0,0,1,1.17,1.51,2.94,2.94,0,0,1-.17,1.51c-.19.95,1.11,2.25,2.4,2.81,1.59.71,3.3.33,4.78,1.08,1.87.9,1.85,2.82,3.66,3.91a7.3,7.3,0,0,0,5.38.29A18.62,18.62,0,0,1,111,136.3c1.64,0,3.08.62,4.76.56a7.08,7.08,0,0,0,5.89-3.61c.85-1.75.07-4-.21-5.57-1-1.26-2.2-3.25-3.62-4.11a5.22,5.22,0,0,0-4.72-.53C112.11,123.51,111.33,124.38,110.22,124.57Z"/>
              <path class="cls-12" d="M104.06,124.64a.17.17,0,0,0,0,.26,24.34,24.34,0,0,0,5.7,5.39,29.11,29.11,0,0,1-11.24-1.82,25.91,25.91,0,0,1-2.52-5,.26.26,0,0,0-.28-.15.17.17,0,0,0-.13.23,26.14,26.14,0,0,0,2.27,4.64,30,30,0,0,1-8.63-5.3.23.23,0,0,0-.31,0,.24.24,0,0,0,.07.32,30.35,30.35,0,0,0,10.22,5.92,29.25,29.25,0,0,1-5.6,1.15.15.15,0,0,0-.12.24.43.43,0,0,0,.36.18,29.41,29.41,0,0,0,6-1.35,29.73,29.73,0,0,0,10.39,1.31,29.57,29.57,0,0,1-8.27,4.72.14.14,0,0,0,0,.26.43.43,0,0,0,.42.08A29.64,29.64,0,0,0,111,130.6a30.54,30.54,0,0,0,8-1.71c.13,0,.21-.16.17-.26s-.17-.14-.3-.09a29.83,29.83,0,0,1-8.41,1.72,24.36,24.36,0,0,1-6.07-5.57A.23.23,0,0,0,104.06,124.64Z"/>
            </g>
            <g>
              <path class="cls-13" d="M115.36,137.78a13.62,13.62,0,0,1,4.53-.13,5.89,5.89,0,0,0,4.15-1c1.18-1.08.93-2.78,2.32-3.55,1.12-.61,2.4-.1,3.54-.38.92-.24,1.91-.88,1.95-1.71a2.73,2.73,0,0,1,.18-1.3,2,2,0,0,1,1.22-.75c.49-.13,1-.18,1.46-.32,1-.34,2.66-.9,2.74-2.58s-2.06-2.25-3.37-2.22a12.27,12.27,0,0,0-1.81.23,3.15,3.15,0,0,1-1.69-.09c-.48-.22-.64-.65-.91-1-.53-.69-2.1-.59-3.16-.13-1.32.56-2.06,1.85-3.33,2.18-1.59.41-2.58-1-4.05-1a4.46,4.46,0,0,0-3.1,1.62,4.94,4.94,0,0,1-2.73,1.8c-1,.09-1.85-.51-2.68-.71a3.91,3.91,0,0,0-3.48,1.34c-1,1-1.89,2.83-2.73,4-.14,1.43-.67,3.51.45,5a6.74,6.74,0,0,0,6.37,2.22C112.8,139,113.93,138.16,115.36,137.78Z"/>
              <path class="cls-14" d="M122.58,135.16a.14.14,0,0,0-.09-.22,49.54,49.54,0,0,1-7.35-2.33,69.42,69.42,0,0,0,9.78-3.41c1.68.45,3.35.93,4.91,1.51a.27.27,0,0,0,.29-.1.15.15,0,0,0-.08-.22c-1.44-.54-3-1-4.52-1.42a38.55,38.55,0,0,1,8.77-2.52c.12,0,.21-.11.2-.2s-.12-.15-.25-.14a44.28,44.28,0,0,0-10.16,3.06c.87-1.39,1.75-2.79,2.75-4.17a.14.14,0,0,0-.08-.23.31.31,0,0,0-.32.12c-1.07,1.5-2,3-3,4.52a54.89,54.89,0,0,1-8.86,3,43.49,43.49,0,0,0,4.47-6.39.14.14,0,0,0-.08-.22.26.26,0,0,0-.29.11A39.48,39.48,0,0,1,114,132.5a19.22,19.22,0,0,1-7.21.1c-.12,0-.24,0-.25.12s.06.18.19.21a20,20,0,0,0,7.79-.19,44.79,44.79,0,0,0,7.75,2.54A.31.31,0,0,0,122.58,135.16Z"/>
            </g>
            <g>
              <path class="cls-13" d="M83.84,122.65a15.72,15.72,0,0,1-4.12-2.49,6.55,6.55,0,0,0-4.61-1.42c-1.81.36-2.46,2-4.29,2.12-1.46.07-2.66-1-4.13-1.06-1.18-.1-2.66.29-3,1.14a2.64,2.64,0,0,1-.57,1.29,2.83,2.83,0,0,1-1.58.55,17.37,17.37,0,0,0-1.77.16c-1.22.25-3.17,1-3.06,2.73s2.13,2.23,3.34,2.35c.57.06,1.15,0,1.72,0a2.54,2.54,0,0,1,1.56.42,2.64,2.64,0,0,1,.6,1.26c.33.83,1.65,1.15,2.67,1.07,1.25-.1,2.34-1,3.57-.79,1.52.32,1.72,2.1,2.86,2.87a4.13,4.13,0,0,0,3.33.15,4.83,4.83,0,0,1,3.37-.05c1,.5,1.39,1.51,2.07,2.19A4.65,4.65,0,0,0,86,136c1.49-.33,3.19-1.68,4.54-2.43.78-1.27,2.25-3,2-4.86a6.84,6.84,0,0,0-4.31-5.16C86.77,123,85.31,123.12,83.84,122.65Z"/>
              <path class="cls-14" d="M75.74,120.88a.14.14,0,0,0,0,.25,34.19,34.19,0,0,1,5.39,6.2,38,38,0,0,0-10.67-2.1c-1.4-1.18-2.9-2.31-4.44-3.39a.32.32,0,0,0-.35,0,.14.14,0,0,0,0,.25c1.42,1,2.8,2,4.12,3.1a88.9,88.9,0,0,0-9.66.11c-.14,0-.24.09-.23.19s.11.17.25.16a82.24,82.24,0,0,1,11.1,0c-1.47.91-2.85,1.88-4.19,2.9a.15.15,0,0,0,0,.25.27.27,0,0,0,.32,0,53.16,53.16,0,0,1,4.54-3.09,36.24,36.24,0,0,1,9.54,2.13,29.73,29.73,0,0,0-7.36,3.22.15.15,0,0,0,0,.24.2.2,0,0,0,.28.05,29.33,29.33,0,0,1,7.75-3.26A24.66,24.66,0,0,1,88.59,132a.23.23,0,0,0,.3,0,.22.22,0,0,0-.07-.29,25.14,25.14,0,0,0-7.09-4.1,34,34,0,0,0-5.61-6.64A.4.4,0,0,0,75.74,120.88Z"/>
            </g>
            <g>
              <path class="cls-2" d="M96.19,130.32c-1,.08-1.93-.75-2.78-1.51a4.6,4.6,0,0,0-3.37-1.4c-1.59.18-2.52,1.73-4.32,1.46-1.44-.2-2.51-1.49-4.17-1.86-1.32-.31-3.17-.06-3.57.8-.21.44-.26.93-.73,1.28a4.17,4.17,0,0,1-1.84.59,10.34,10.34,0,0,0-2.06.43,5.09,5.09,0,0,0-2.15,1.42,1.88,1.88,0,0,0-.29,2.25,2.6,2.6,0,0,0,1.8,1.22,8,8,0,0,0,1.82.13c.47,0,.94-.15,1.43-.16a1.71,1.71,0,0,1,1.33.41,2.84,2.84,0,0,1,.47,1.3,2.22,2.22,0,0,0,2.1,1.32c1.07.06,2.25-.69,3.46-.19,1.49.64,1.38,2.46,2.7,3.48,1.12.86,3,.9,4.56.66a20,20,0,0,1,5.13-.41c1.7.18,3.18.84,5.08.78a7.86,7.86,0,0,0,4.21-1.53,6.59,6.59,0,0,0,2.41-3.1c.66-2.11-.85-3.9-1.65-5.17-1.37-.75-3.1-2.13-4.28-2.81s-2.1-1.21-3.08-.63C97.78,129.45,97.12,130.26,96.19,130.32Z"/>
              <path class="cls-1" d="M90.24,129.6a.15.15,0,0,0-.07.24,37.65,37.65,0,0,0,5,5.86c-3.64-.33-7.11-1.61-10.66-2.56a29,29,0,0,0-4-4.19.39.39,0,0,0-.39,0,.14.14,0,0,0,0,.25A26.91,26.91,0,0,1,83.8,133a21.2,21.2,0,0,0-9.76-.56c-.13,0-.22.13-.2.23a.23.23,0,0,0,.28.12c3.66-.8,7.46-.08,11,1a30.57,30.57,0,0,0-4.62,2.11.16.16,0,0,0,0,.25.23.23,0,0,0,.29.05,34,34,0,0,1,5-2.23,47,47,0,0,0,9.77,2.2,39.3,39.3,0,0,1-8.2,3.57.15.15,0,0,0-.07.24.34.34,0,0,0,.35.1,35.49,35.49,0,0,0,8.61-3.88,13.77,13.77,0,0,0,7.58-1.81c.12-.07.17-.2.11-.28a.22.22,0,0,0-.3,0,13.74,13.74,0,0,1-7.86,1.74,33.07,33.07,0,0,1-5.26-6.06A.29.29,0,0,0,90.24,129.6Z"/>
            </g>
          </g>
        </g>
        <path class="cls-4" d="M83.75,149.19l8.12,5.74a8,8,0,0,0,5.45,1.43l14.18-1.47,37.76,14.5A7.84,7.84,0,0,0,160,161.63h0a7.84,7.84,0,0,0-6.72-7.26l-34.69-4.07L106,144.23l-5.53-1.09a2,2,0,0,0-2.37,1.63h0a2,2,0,0,0,1,2.09l5.28,3h0a58.45,58.45,0,0,1-18.29-.3Z"/>
      </g>
      <g>
        <path d="M145.43,140.45c1.52-3.35,4-6.36,4.5-10,.59-4-1.17-7.8-2.32-11.63-2.47-8.23-2-17.51,2.19-25S162.28,81,170.88,81.25s16.91,6.66,18.42,15.12c.59,3.29.26,6.88,2,9.76,1.93,3.26,6.09,4.87,7.59,8.36,2,4.7-1.78,9.86-1.79,15,0,5.61,4.42,10.11,6.58,15.29,2.9,7,1.38,15.43-3.33,21.33a26,26,0,0,1-19.85,9.31,32.53,32.53,0,0,1-20.79-7.74c-4.75-3.94-7.92-8.82-10.86-14.16-1-1.88-2.83-3-3.81-4.82C143.68,146.23,144.35,142.84,145.43,140.45Z"/>
        <g>
          <path class="cls-15" d="M178.09,135.13l19.65,3.12,4,7.95-5.37,34.26a52.87,52.87,0,0,0,6.1,34L215,236.73c-26.63,13.89-56.77,9.55-69,1.45l10.61-28.78a27.25,27.25,0,0,0-1.05-21.34l-4.33-8.94-.76-.59a11.64,11.64,0,0,1-3.73-13.26l5.11-13.62,3.5-10.22,12.59-6.1Z"/>
          <g>
            <path class="cls-16" d="M205.93,231.33a82.89,82.89,0,0,1-12.17,4.75,72.11,72.11,0,0,1-29,2.64,83.31,83.31,0,0,1-12.83-2.47,45.31,45.31,0,0,0,12.5,4.56,51.7,51.7,0,0,0,30-2.74,44.92,44.92,0,0,0,11.47-6.74Z"/>
            <path class="cls-16" d="M200.4,223.61c-2.56,1.42-5.52,3-8.77,4.43a84.57,84.57,0,0,1-10.36,3.83,85.53,85.53,0,0,1-10.77,2.43c-3.51.55-6.84.86-9.77,1.06a43.61,43.61,0,0,0,9.94.51,51.39,51.39,0,0,0,11.2-2,50.66,50.66,0,0,0,10.47-4.45,43.91,43.91,0,0,0,8.06-5.84Z"/>
            <path class="cls-16" d="M190.2,199.2c-4.32,1.3-9.84,3.26-15.35,5.23s-11,4-15.17,5.7A89.28,89.28,0,0,0,175.4,206a90.66,90.66,0,0,0,14.8-6.75Z"/>
            <path class="cls-16" d="M182,151.3A106.25,106.25,0,0,0,164,162.62,106.64,106.64,0,0,0,182,151.3Z"/>
          </g>
        </g>
        <path class="cls-4" d="M155.3,141.43h0a16,16,0,0,0-12,10.34l-9.24,26-21.7,25.92-1.32,1a6.66,6.66,0,0,0-2.29,7.43l.13.36a6.64,6.64,0,0,0,6.3,4.52h0l2.89-7.23,19.8-19.88a31.36,31.36,0,0,0,8-13.86Z"/>
        <path class="cls-4" d="M159.75,139.27l-1.15,4.43a6.83,6.83,0,0,0,2.73,7.34l5.91,4.09,12.15-6a11.18,11.18,0,0,0,5.44-6h0a11.11,11.11,0,0,1,5.2-5.83l.45-.23-12.39-2-10.2.2Z"/>
        <g>
          <g>
            <path d="M174.8,126.55a23.45,23.45,0,0,0,1.2-5.75l-12.16,6.62,1,7.55a9.84,9.84,0,0,0,5.24-1.86A13.82,13.82,0,0,0,174.8,126.55Z"/>
            <path class="cls-4" d="M179.17,142.83l-3.11-22.07-.06,0a23.45,23.45,0,0,1-1.2,5.75,13.82,13.82,0,0,1-4.7,6.56,9.84,9.84,0,0,1-5.24,1.86l1.06,7.86Z"/>
          </g>
          <g>
            <path class="cls-17" d="M150.86,96.61l2.82-3.48a14.16,14.16,0,0,1,7.61-4.83h0a14.16,14.16,0,0,1,9.27.88l1.84.84a14.1,14.1,0,0,1,7.86,9.58l.34,1.41a14.18,14.18,0,0,1-.42,8l-2.09,5.91h-2l-1.88-13.31L164.05,95.8Z"/>
            <g>
              <g>
                <path class="cls-6" d="M154.05,119a5.18,5.18,0,1,1-5.18-5.18A5.18,5.18,0,0,1,154.05,119Z"/>
                <circle class="cls-18" cx="148.87" cy="118.96" r="2.93"/>
              </g>
              <path class="cls-7" d="M149.49,124.39a1.44,1.44,0,1,1-1.43-1.44A1.44,1.44,0,0,1,149.49,124.39Z"/>
            </g>
            <rect class="cls-4" x="148.35" y="92.89" width="28.65" height="39.5" rx="13.17"/>
            <path d="M146.33,111.58A21,21,0,0,0,165,99.31a19.32,19.32,0,0,0,9.06,13.47l-.25,2.36a4.88,4.88,0,0,0,3.2,5.12h0l1-13.06a14.09,14.09,0,0,0-5.14-12l-.52-.43a14.12,14.12,0,0,0-8.91-3.18H161.6a14.11,14.11,0,0,0-10.74,5h0a14.09,14.09,0,0,0-3.15,6.78Z"/>
            <g>
              <g>
                <path class="cls-4" d="M185.52,119a5.18,5.18,0,1,1-5.18-5.18A5.18,5.18,0,0,1,185.52,119Z"/>
                <circle class="cls-6" cx="180.34" cy="118.96" r="2.93"/>
              </g>
              <path class="cls-7" d="M181,124.39a1.44,1.44,0,1,1-1.43-1.44A1.44,1.44,0,0,1,181,124.39Z"/>
            </g>
            <path class="cls-19" d="M164.36,107.87a5.07,5.07,0,0,0-4,.76l7.21,1.58A5,5,0,0,0,164.36,107.87Z"/>
            <ellipse class="cls-19" cx="163.63" cy="113.35" rx="0.95" ry="1.3"/>
            <ellipse class="cls-19" cx="153.1" cy="113.35" rx="0.95" ry="1.3"/>
            <path class="cls-6" d="M159.64,121.08l-4-.38a1.91,1.91,0,0,0,1.57,1.94A2.6,2.6,0,0,0,159.64,121.08Z"/>
            <path class="cls-7" d="M164.62,124l-9.32.32a4.41,4.41,0,0,0,4.13,4C161.63,128.5,164,126.16,164.62,124Z"/>
          </g>
        </g>
        <g>
          <g>
            <path class="cls-20" d="M96,163.7l21.73,72.71c.37,2,13.35,1.13,29-1.85s28-7,27.66-8.92L168,150Z"/>
            <path class="cls-21" d="M168,150c.47,2.48-15.24,7.55-35.11,11.33S96.5,166.18,96,163.7s15.25-7.55,35.11-11.32S167.48,147.55,168,150Z"/>
          </g>
          <g>
            <path class="cls-22" d="M137,176.69c1.24-.24,2.48-.51,3.74-.72a5.47,5.47,0,0,1,2.75.13,4.1,4.1,0,0,1,1.65,1.16c.85,1,1.69,1.92,2.52,2.89.25.28.27.28.55,0l1.66-1.44c.07-.06.17-.06.26-.1a.82.82,0,0,1,0,.26c-.47,2.84-1,5.69-1.42,8.53a.31.31,0,0,1-.36.3l-4.26.1-4.34.09a1,1,0,0,1-.26-.08,1,1,0,0,1,.15-.24l1.68-1.46c.15-.13.2-.25,0-.42-1.65-1.86-3.27-3.74-4.95-5.58a10.13,10.13,0,0,0-3-2.27c-.13-.07-.27-.12-.39-.19a.66.66,0,0,1-.15-.14c.06-.05.11-.12.18-.14l.45-.09,3.47-.68Z"/>
            <path class="cls-22" d="M150.32,199.76c1.29-.28,2.59-.53,3.87-.85a10.37,10.37,0,0,0,3.76-1.72.42.42,0,0,1,.2-.05c0,.08,0,.18,0,.25-.44,1.31-.89,2.63-1.35,3.94-.39,1.13-.79,2.26-1.21,3.39a10.41,10.41,0,0,1-.59,1.21,3.7,3.7,0,0,1-2.56,1.91c-1.31.29-2.62.53-3.94.79-.34.07-.38.12-.32.46.14.72.29,1.44.42,2.16a.76.76,0,0,1,0,.26.78.78,0,0,1-.27-.09l-6.68-5.51a.27.27,0,0,1-.09-.4l4.17-7.6a1,1,0,0,1,.18-.18.9.9,0,0,1,.14.22l.42,2.16c.07.35.09.36.44.29l3.41-.66Z"/>
            <path class="cls-22" d="M122.24,201a4.07,4.07,0,0,1,.17-2c.4-1.22.82-2.44,1.24-3.65.13-.37.12-.39-.24-.52l-2-.71a1.13,1.13,0,0,1-.23-.17.72.72,0,0,1,.22-.17l5.16-1.94,2.82-1.06c.37-.14.38-.14.58.2q2.22,3.63,4.42,7.27a1.73,1.73,0,0,1,.08.27,1.05,1.05,0,0,1-.31,0l-2.1-.72c-.19-.07-.31,0-.38.15-.82,2.49-1.67,5-2.44,7.45a9.28,9.28,0,0,0-.37,3.44c0,.1,0,.2,0,.3s0,.2-.05.3a.87.87,0,0,1-.25-.15q-.91-1-1.83-2.1c-1.06-1.23-2.13-2.47-3.18-3.72a6,6,0,0,1-1.15-2C122.32,201.31,122.29,201.15,122.24,201Z"/>
            <path class="cls-22" d="M139.21,206.15c.25,1.27.49,2.56.75,3.83,0,.24,0,.32-.24.36-2.13.41-4.25.83-6.38,1.23a4,4,0,0,1-1.19.06,2.22,2.22,0,0,1-2-1.76,7.8,7.8,0,0,1,0-3.69c.16-.83.43-1.64.64-2.47a.37.37,0,0,1,.33-.29l6.95-1.36c.24-.05.32,0,.36.25C138.7,203.59,139,204.87,139.21,206.15Z"/>
            <path class="cls-22" d="M137,182.35c0,.08,0,.15-.06.21-.77,2.25-1.55,4.5-2.31,6.74-.07.2-.14.26-.35.18l-7.46-2.56c-.19-.06-.24-.14-.17-.33q1.08-3.12,2.14-6.23a3.13,3.13,0,0,1,1-1.46,2.38,2.38,0,0,1,2.23-.34,7.4,7.4,0,0,1,2.49,1.33,14.86,14.86,0,0,1,2.4,2.29S136.92,182.3,137,182.35Z"/>
            <path class="cls-22" d="M152.56,198.19c-.39.22-.75,0-1.14-.5-1.4-1.66-2.84-3.3-4.28-4.93-.17-.19-.15-.29,0-.45q3-2.55,5.9-5.13c.16-.15.26-.15.41,0l4.25,4.89a3,3,0,0,1,.87,1.89,2.62,2.62,0,0,1-1.09,2.05,9.36,9.36,0,0,1-3.23,1.66C153.78,197.85,153.27,198,152.56,198.19Z"/>
          </g>
        </g>
        <path class="cls-4" d="M175.16,186.22l15.07-44.08a6.12,6.12,0,0,1,7.51-3.89h0a6.12,6.12,0,0,1,4,7.95l-14.56,40.15a25.79,25.79,0,0,1-10,12.69L146,219.8l-6.74,4.43a9.06,9.06,0,0,1-6.45,1.37h0a8.44,8.44,0,0,1-7.07-8.33h0a3.93,3.93,0,0,1,4.12-3.92l4.85.23,5.5-2-3.34-4.25a2.93,2.93,0,0,1,.74-4.29h0l7.23,5.93Z"/>
      </g>
    </g>
  </g>
</svg>
