<svg xmlns="http://www.w3.org/2000/svg" xmlns:xlink="http://www.w3.org/1999/xlink" viewBox="0 0 348.57 450.9">
  <defs>
    <style>
      .cls-1 {
        fill: none;
      }

      .cls-11, .cls-2 {
        fill: #5ea466;
      }

      .cls-3 {
        fill: #d39142;
      }

      .cls-4 {
        isolation: isolate;
      }

      .cls-5 {
        clip-path: url(#clip-path);
      }

      .cls-6 {
        fill: #cce5d6;
        opacity: 0.4;
      }

      .cls-7 {
        fill: #070b0c;
      }

      .cls-8 {
        fill: #4d4d4d;
      }

      .cls-9 {
        clip-path: url(#clip-path-3);
      }

      .cls-10 {
        clip-path: url(#clip-path-4);
      }

      .cls-11, .cls-27 {
        opacity: 0.5;
      }

      .cls-11, .cls-29, .cls-32 {
        mix-blend-mode: multiply;
      }

      .cls-12 {
        clip-path: url(#clip-path-6);
      }

      .cls-13 {
        fill: #5ebd75;
      }

      .cls-14 {
        fill: #d3efe8;
      }

      .cls-15 {
        fill: #aaddce;
      }

      .cls-16 {
        clip-path: url(#clip-path-7);
      }

      .cls-17 {
        fill: #fff4b6;
      }

      .cls-18 {
        clip-path: url(#clip-path-8);
      }

      .cls-19 {
        fill: #faaf4c;
      }

      .cls-20 {
        clip-path: url(#clip-path-9);
      }

      .cls-21 {
        fill: #482d6b;
      }

      .cls-22 {
        clip-path: url(#clip-path-10);
      }

      .cls-23 {
        fill: #97d19d;
      }

      .cls-24 {
        fill: #02595d;
      }

      .cls-25 {
        fill: #fad082;
      }

      .cls-26 {
        fill: #f7a096;
      }

      .cls-27 {
        fill: #e75b5d;
      }

      .cls-28 {
        fill: #fff;
      }

      .cls-29 {
        fill: #e3d0bd;
      }

      .cls-30 {
        fill: #d44f18;
      }

      .cls-31 {
        fill: #f2682d;
      }

      .cls-32 {
        opacity: 0.21;
      }

      .cls-33 {
        fill: #f6e7da;
      }

      .cls-34 {
        fill: #96d89f;
      }
    </style>
    <clipPath id="clip-path">
      <path class="cls-1" d="M111,91c-2,.7-4,1.49-6,2.32a101.12,101.12,0,0,0-28.17,14.85,105.2,105.2,0,0,0-22.93,23.69,119.72,119.72,0,0,0-15.38,30.6,138.4,138.4,0,0,0-6.8,33.77A140.07,140.07,0,0,0,31.49,214a71.91,71.91,0,0,0,3.2,18.81C38.1,243.07,45,252.28,55.34,256.34c10.87,4.3,23,2.68,34.36,1.76a202.93,202.93,0,0,1,40.11,1c6.87.81,13.68,1.95,20.5,3.13a187.63,187.63,0,0,0,19.77,2.62c11.21.73,22.94-.61,32.79-6.34a35.78,35.78,0,0,0,11.71-10.92,62.07,62.07,0,0,0,7.33-16.19,118.84,118.84,0,0,0,5.17-37.94,140.43,140.43,0,0,0-5.32-36.73A96.5,96.5,0,0,0,206,124.75a114.2,114.2,0,0,0-25.51-23.89c-9.92-7-21-12.92-33.13-14.57a60.38,60.38,0,0,0-8.17-.54A86.08,86.08,0,0,0,111,91"/>
    </clipPath>
    <clipPath id="clip-path-3">
      <path class="cls-1" d="M74.21,148.46l5.6,110.45c3.33-.22,6.64-.54,9.89-.81a202.93,202.93,0,0,1,40.11,1c6.87.81,13.68,1.95,20.5,3.13a187.63,187.63,0,0,0,19.77,2.62c1.31.09,2.64.14,4,.17L180,148.46Z"/>
    </clipPath>
    <clipPath id="clip-path-4">
      <rect class="cls-2" x="70.15" y="139.62" width="113.87" height="8.84"/>
    </clipPath>
    <clipPath id="clip-path-6">
      <path class="cls-1" d="M109.36,35.33A7.41,7.41,0,0,0,105.1,41a7.42,7.42,0,0,0-10.76,9.33s0,.09.13.26a1.5,1.5,0,0,1,.09.18,6.81,6.81,0,0,0,.45.73l.11.16c1.75,2.56,6.79,8,18.35,9.16,0,0,8.74-9.33,6.31-19.84a14.86,14.86,0,0,0-.59-2,7.42,7.42,0,0,0-9.2-3.93c-.21.07-.42.16-.63.25"/>
    </clipPath>
    <clipPath id="clip-path-7">
      <path class="cls-1" d="M162.56,90a10,10,0,0,0-6.28,7.19,10,10,0,0,0-15.36,11.46l.14.37a1.33,1.33,0,0,1,.11.24,7.7,7.7,0,0,0,.53,1l.13.22c2.1,3.62,8.32,11.48,23.72,14.11,0,0,12.65-11.66,10.43-26a20.21,20.21,0,0,0-.59-2.71A10,10,0,0,0,162.56,90"/>
    </clipPath>
    <clipPath id="clip-path-8">
      <path class="cls-3" d="M91.2,77.37c.26.66.52,1.32.74,2a1,1,0,0,1-.29.58,5.5,5.5,0,0,1-3.27,1.81,1.47,1.47,0,0,1-.72,0,1,1,0,0,1-.27-.14,16.13,16.13,0,0,0-1.12-2.19l-.34.21a4.94,4.94,0,0,0-2.31.31c-3.1,1.12-5.24,4.08-6.15,7.24a26,26,0,0,0-.38,9.8,7.48,7.48,0,0,0,.53,2.4,5.7,5.7,0,0,1,.93-2.21,7.14,7.14,0,0,1,2.72-2.33,6.91,6.91,0,0,1,2.09-.62,7,7,0,0,1,5.42,1.6,10.15,10.15,0,0,1,2.88-5c2.21-2.54,4.46-5.18,5.51-8.38a4.53,4.53,0,0,0,.18-2.81A4.07,4.07,0,0,0,96.19,78,8,8,0,0,0,93,76.15a6.55,6.55,0,0,0-1.78,1.22"/>
    </clipPath>
    <clipPath id="clip-path-9">
      <path class="cls-1" d="M103.88,118a8.18,8.18,0,0,1-7.85-.49,13,13,0,0,1-1.56,4.66,6.5,6.5,0,0,1-2.27,2.09,7,7,0,0,1-6.22.36,1.44,1.44,0,0,0,.15.51,12.42,12.42,0,0,0,5,5.29,6.67,6.67,0,0,0,5.3.83,9.59,9.59,0,0,0,3.81-3.22.63.63,0,0,1,.29-.23c.22-.06.42.12.58.28a6.13,6.13,0,0,0,2.12,1.31,8.51,8.51,0,0,0,4.68-2.64,11.88,11.88,0,0,0,3.38-7.3,9.34,9.34,0,0,0-2.8-7.42l-.21,0a8.21,8.21,0,0,1-4.41,6"/>
    </clipPath>
    <clipPath id="clip-path-10">
      <path class="cls-1" d="M126.82,13.46l0,.24a.52.52,0,0,1,0,.17c0,.24,0,.48,0,.72a.75.75,0,0,1,0,.15c0,2.6.72,8.79,8.07,15.16,0,0,10.49-2.12,13.94-10.46a14.21,14.21,0,0,0,.56-1.63,6.22,6.22,0,0,0-10.59-5.49,6.18,6.18,0,0,0-4.58-3.78,6,6,0,0,0-1.18-.12,6.23,6.23,0,0,0-6.1,5"/>
    </clipPath>
  </defs>
  <g class="cls-4">
    <g id="Layer_2" data-name="Layer 2">
      <g id="OBJECTS">
        <g>
          <g class="cls-5">
            <rect class="cls-6" x="30.33" y="84.81" width="197.83" height="181.66" transform="matrix(1, -0.01, 0.01, 1, -1.68, 1.25)"/>
          </g>
          <g class="cls-5">
            <rect class="cls-7" x="73.7" y="258.38" width="106.77" height="6.19"/>
            <path class="cls-8" d="M70.3,282.45H64.24a3.41,3.41,0,0,1-3.39-3.39V240.31a3.41,3.41,0,0,1,3.39-3.39H70.3a3.41,3.41,0,0,1,3.4,3.39v38.75a3.41,3.41,0,0,1-3.4,3.39"/>
            <rect class="cls-7" x="63.75" y="236.92" width="7.04" height="45.53"/>
            <path class="cls-8" d="M189.92,282.45h-6.06a3.41,3.41,0,0,1-3.4-3.39V240.31a3.41,3.41,0,0,1,3.4-3.39h6.06a3.4,3.4,0,0,1,3.39,3.39v38.75a3.4,3.4,0,0,1-3.39,3.39"/>
            <rect class="cls-7" x="183.37" y="236.92" width="7.04" height="45.53"/>
          </g>
          <g class="cls-9">
            <rect class="cls-2" x="74.21" y="148.46" width="105.74" height="116.51"/>
          </g>
          <g>
            <rect class="cls-2" x="70.15" y="139.62" width="113.87" height="8.84"/>
            <g class="cls-10">
              <rect class="cls-2" x="70.15" y="139.62" width="113.87" height="8.84"/>
            </g>
          </g>
          <g class="cls-5">
            <polygon class="cls-11" points="179.95 148.46 74.88 161.69 74.21 148.46 179.95 148.46"/>
          </g>
          <g class="cls-12">
            <rect class="cls-13" x="94.37" y="36.48" width="27.59" height="25.45" transform="translate(-10.19 38.55) rotate(-19.32)"/>
          </g>
          <g>
            <path class="cls-14" d="M168.15,97.91l-4.64,8.77-4.79,9.18-8.51,16.3a9.06,9.06,0,0,1-7.92,4.9h-.06a8.94,8.94,0,0,1-4.5-1.05l-12.88-6.81-12.91-6.75a8.8,8.8,0,0,1-3.4-3.07,6.44,6.44,0,0,1-.4-.66A9,9,0,0,1,108,110l8.6-16.25,3.86-7.29,5.57-10.67,7-13.37,1.62-3.09a23,23,0,0,1,9.86-9.8,21.52,21.52,0,0,1,3.16-1.33l.13,0a22.76,22.76,0,0,0,13-11.12L176.21,7.47l.22-.42a3.8,3.8,0,0,1-1.49-2,3.74,3.74,0,0,1,.27-2.88,3.79,3.79,0,0,1,4.71-1.8,2,2,0,0,1,.34.14,3.1,3.1,0,0,1,.63.26l9,4.75,9,4.68a3.67,3.67,0,0,1,.56.38l.31.16a3.82,3.82,0,0,1-1,6.79,3.74,3.74,0,0,1-2.49-.08l-.22.42L180.38,47.31a22.74,22.74,0,0,0-1.79,17l0,.15a20.36,20.36,0,0,1,.7,3.35,22.91,22.91,0,0,1-2.49,13.67l-1.62,3.09Z"/>
            <path class="cls-15" d="M195.17,17.68a10.9,10.9,0,0,1-5.07,2.2,8.37,8.37,0,0,1-5.63-1.44c-3-2-6-5.28-6-9.08a.54.54,0,0,1,.07-.27.66.66,0,0,1,1-.54,56.58,56.58,0,0,0,15.79,7.94c.73.23.5,1.36-.22,1.19"/>
            <path class="cls-15" d="M143.25,55.93c2-3.27,5.91-3.9,9.16-5.29a21.27,21.27,0,0,0,4.89-3c.33-.32.66-.66,1-1a36.73,36.73,0,0,0,4.16-5.88,28.78,28.78,0,0,1,3.94-5.8c1.1-1.11,2.67-1.7,4.06-.73s2,3.09,2.28,4.79A18,18,0,0,1,171,49.34a29.44,29.44,0,0,1-7.52,9.51c-1.59,1.41-3.27,2.72-5,4a29.8,29.8,0,0,1-4.59,3c-3.1,1.55-6.7,1.69-9.39-.77a7.33,7.33,0,0,1-1.3-9.18"/>
            <path class="cls-15" d="M143,134.37a4.12,4.12,0,0,1-1.74-.38l-.3-.12-1-.44a61.76,61.76,0,0,1-6.68-3.85c-2.28-1.36-4.63-2.63-7-3.78s-4.78-2.14-7.22-3a32.94,32.94,0,0,1-7-3,4.47,4.47,0,0,1-1.94-2,1.68,1.68,0,0,1,.81-2c1.79-1.08,4.25-.73,6.2-.48a40.88,40.88,0,0,1,24.3,12.23,33.75,33.75,0,0,1,2.23,2.54,3.65,3.65,0,0,1,.91,2.28,2.06,2.06,0,0,1-.37,1,1.33,1.33,0,0,1-1.23,1.06"/>
            <path class="cls-15" d="M171,24.06a5.69,5.69,0,0,1,3.19-4.26,3.1,3.1,0,0,1,3.14.25,4.14,4.14,0,0,1,1.11,3.05,6.65,6.65,0,0,1-2.9,6.12,4.11,4.11,0,0,1-3.27.53,2.88,2.88,0,0,1-1.91-2.15,4.8,4.8,0,0,1,.64-3.54"/>
          </g>
          <g class="cls-16">
            <rect class="cls-2" x="139.01" y="89.41" width="39.19" height="35.24"/>
          </g>
          <g>
            <path class="cls-3" d="M115.36,111.36a7.27,7.27,0,0,0,3.49-5.49c2.3,1.51,4.25,3.85,4.34,6.58a9.79,9.79,0,0,1-1.53,5.06,10,10,0,0,1-2.61,3.31,4.51,4.51,0,0,1-4,.86.8.8,0,0,0-.34-.07c-.3,0-.43.4-.5.7a10.17,10.17,0,0,1-5,6.69,7.63,7.63,0,0,1-5.94.35,8.48,8.48,0,0,0,4.68-2.64,11.9,11.9,0,0,0,3.38-7.3,9.34,9.34,0,0,0-2.8-7.42l-.21,0c0-.15,0-.32.06-.48a7.25,7.25,0,0,0,7-.13"/>
            <path class="cls-7" d="M91.2,77.37c.26.66.52,1.32.74,2a1.1,1.1,0,0,1-.29.58,5.5,5.5,0,0,1-3.26,1.81,1.5,1.5,0,0,1-.73,0,1,1,0,0,1-.27-.14,16.73,16.73,0,0,0-1.12-2.19,19.7,19.7,0,0,0-4.49-5.26l0-.05a6.62,6.62,0,0,0,4.15,0,4.42,4.42,0,0,0,2.52-2l.18.28a37.15,37.15,0,0,1,2.52,5.05"/>
            <path class="cls-17" d="M91.25,106.07c-.37-1-.76-1.92-1.22-2.85a19.87,19.87,0,0,0-3.68-5.43,11.15,11.15,0,0,0-5.08-3,6.85,6.85,0,0,1,2.08-.62,7.07,7.07,0,0,1,5.43,1.6,10.15,10.15,0,0,1,2.88-5,16.63,16.63,0,0,1,1.85-1.62c1.6-1.23,3.57-2.3,5.55-1.9a7.5,7.5,0,0,1,3.11,1.7,18,18,0,0,0,1.29,8.12c.14.38.29.75.45,1.12l-1.26,2.73a4.44,4.44,0,0,0-2.09-1.69,1.45,1.45,0,0,0-1.24,0,1.23,1.23,0,0,0-.5.79,8.07,8.07,0,0,0,.34,1.65L96.91,104a5.14,5.14,0,0,0-.49-.78,1.93,1.93,0,0,0-2-.91,1.64,1.64,0,0,0-1,1.38,2.94,2.94,0,0,0,0,.89Z"/>
            <path class="cls-7" d="M99.16,101.66a8.8,8.8,0,0,1-.34-1.65,1.23,1.23,0,0,1,.5-.79,1.45,1.45,0,0,1,1.24,0,4.38,4.38,0,0,1,2.78,3.64,1.76,1.76,0,0,1-.46,1.52,1.32,1.32,0,0,1-1.06.25,2.42,2.42,0,0,1-1-.47,4.93,4.93,0,0,1-1.66-2.51"/>
            <path class="cls-3" d="M102.17,89a7.5,7.5,0,0,0-3.11-1.7c-2-.4-4,.67-5.55,1.9a16.63,16.63,0,0,0-1.85,1.62c2.21-2.54,4.46-5.18,5.51-8.38a4.46,4.46,0,0,0,.18-2.81A4,4,0,0,0,96.19,78,8,8,0,0,0,93,76.15a8,8,0,0,1,3.31-.77,11.61,11.61,0,0,1,5.42,1.29,16.17,16.17,0,0,1,8.56,10.84,5.09,5.09,0,0,0-8,1.5.2.2,0,0,0-.07-.06"/>
            <g>
              <path class="cls-3" d="M91.2,77.37c.26.66.52,1.32.74,2a1,1,0,0,1-.29.58,5.5,5.5,0,0,1-3.27,1.81,1.47,1.47,0,0,1-.72,0,1,1,0,0,1-.27-.14,16.13,16.13,0,0,0-1.12-2.19l-.34.21a4.94,4.94,0,0,0-2.31.31c-3.1,1.12-5.24,4.08-6.15,7.24a26,26,0,0,0-.38,9.8,7.48,7.48,0,0,0,.53,2.4,5.7,5.7,0,0,1,.93-2.21,7.14,7.14,0,0,1,2.72-2.33,6.91,6.91,0,0,1,2.09-.62,7,7,0,0,1,5.42,1.6,10.15,10.15,0,0,1,2.88-5c2.21-2.54,4.46-5.18,5.51-8.38a4.53,4.53,0,0,0,.18-2.81A4.07,4.07,0,0,0,96.19,78,8,8,0,0,0,93,76.15a6.55,6.55,0,0,0-1.78,1.22"/>
              <g class="cls-18">
                <rect class="cls-19" x="76.57" y="76.15" width="21.09" height="23.22"/>
              </g>
            </g>
            <path class="cls-17" d="M102.65,100.92l1.26-2.73a28.92,28.92,0,0,0,11.45,13.17,7.25,7.25,0,0,1-7,.13c0,.16,0,.33-.06.48A8,8,0,0,1,96,117.47a13,13,0,0,1-1.56,4.66,6.5,6.5,0,0,1-2.27,2.09c1.84-2.55,1.77-6,1.33-9.13a42.31,42.31,0,0,0-2.28-9l2.19-1.48c0,.3.13.59.2.88l.13,0a4.55,4.55,0,0,0,1.37,2.32,1.52,1.52,0,0,0,1,.47,1.15,1.15,0,0,0,.87-.55,2.22,2.22,0,0,0,.32-1,4.81,4.81,0,0,0-.46-2.67l2.24-2.34a5,5,0,0,0,1.67,2.51,2.42,2.42,0,0,0,1,.47,1.32,1.32,0,0,0,1.06-.25,1.76,1.76,0,0,0,.46-1.52,4.4,4.4,0,0,0-.69-2"/>
            <path class="cls-7" d="M93.77,105.44l-.13,0c-.07-.29-.15-.58-.2-.88a2.72,2.72,0,0,1,0-.9,1.61,1.61,0,0,1,1-1.38,1.93,1.93,0,0,1,2,.91,5.14,5.14,0,0,1,.49.78,4.81,4.81,0,0,1,.46,2.67,2.22,2.22,0,0,1-.32,1,1.15,1.15,0,0,1-.87.55,1.52,1.52,0,0,1-1-.47,4.55,4.55,0,0,1-1.37-2.32"/>
            <g class="cls-20">
              <rect class="cls-19" x="85.98" y="111.97" width="25.5" height="19.85"/>
            </g>
            <path class="cls-21" d="M88.5,72a4.33,4.33,0,0,1-2.52,2,6.55,6.55,0,0,1-4.15,0,7.85,7.85,0,0,1,5.06-2.67,1.92,1.92,0,0,1,1.19.17,1.47,1.47,0,0,1,.42.44"/>
          </g>
          <g class="cls-22">
            <rect class="cls-23" x="126.65" y="8.42" width="23.27" height="21.48"/>
          </g>
          <g>
            <g>
              <g>
                <path class="cls-24" d="M116.57,203.77a3.56,3.56,0,0,1-.14-2.53,9.06,9.06,0,0,1,1.44-2.75,1.38,1.38,0,0,1,0-.35l2.52-3.38,3.22,2.64-1.57-7.87-7.65.31,2.44,2L113.71,196l-.11.34a6.16,6.16,0,0,0,3,7.47Z"/>
                <path class="cls-24" d="M119.5,199.91a1.53,1.53,0,0,1-1.17-.44,8.33,8.33,0,0,0-.88,1.67,2.9,2.9,0,0,0-.09,2.09,2.83,2.83,0,0,0,1,1.19,6.22,6.22,0,0,0,1.43.09l4.81-.25-.24-4.6Z"/>
              </g>
              <g>
                <path class="cls-24" d="M141.79,197.78a3.5,3.5,0,0,1-2,1.57,8.8,8.8,0,0,1-3.07.4,1.53,1.53,0,0,1-.3.19l-4.21-.12.31-4.15L127,201.48l4.65,6.08.24-3.14,5.22.15.34-.1a6.15,6.15,0,0,0,4.39-6.76A.25.25,0,0,1,141.79,197.78Z"/>
                <path class="cls-24" d="M137,197.6a1.48,1.48,0,0,1,.31,1.21,8.26,8.26,0,0,0,1.87-.24,2.87,2.87,0,0,0,1.77-1.12,2.82,2.82,0,0,0,.42-1.47,5.68,5.68,0,0,0-.74-1.22l-3-3.79L134,193.81Z"/>
              </g>
              <g>
                <path class="cls-24" d="M124.17,180.12a3.57,3.57,0,0,1,2.34,1,8.82,8.82,0,0,1,1.83,2.5,1.19,1.19,0,0,1,.31.17l1.92,3.74-3.78,1.73,7.76,2.05,3.08-7-2.87,1.31L132.38,181l-.25-.25a6.15,6.15,0,0,0-8-.59Z"/>
                <path class="cls-24" d="M126.34,184.45a1.53,1.53,0,0,1,.92-.86,8,8,0,0,0-1.11-1.52,2.93,2.93,0,0,0-1.84-1,2.89,2.89,0,0,0-1.49.34,6.33,6.33,0,0,0-.71,1.24l-1.89,4.43,4.24,1.81Z"/>
              </g>
            </g>
            <path class="cls-24" d="M138.28,216.13H116.5a2,2,0,0,1,0-4h21.78a2,2,0,0,1,0,4Z"/>
            <path class="cls-24" d="M138.28,226.21H116.5a2,2,0,1,1,0-4h21.78a2,2,0,1,1,0,4Z"/>
          </g>
        </g>
        <g>
          <g>
            <g>
              <path class="cls-7" d="M277.11,100.53c-3.83-23.29-17.54-8.1-14.66-14s2.38-16.13-4.78-20-2.07.67-2.75-8-14.14-13.2-14.14-13.2c-8-.59-16.4,1.1-22.76,6-2.32,1.77-4.79,8.11-4.79,18.52,0,0,2.19,15.34-2.74,17.53-8.26,3.67-.11,11.2,2.38,12.7l40.28-.88.22-5.3,1.84,5.26Z"/>
              <path class="cls-7" d="M247.79,54.16c-1.19-2.7-2.41-5.49-2.45-8.44s1.38-6.13,4.11-7.24c2.89-1.17,6.22.3,8.52,2.39,3,2.76,5,7,4,11s-6,6.76-9.56,4.73"/>
              <path class="cls-25" d="M219,75.3l2.69,9.28a5.76,5.76,0,1,1-10-2.8Z"/>
              <path class="cls-26" d="M240.91,69.38a.69.69,0,0,0,.77.61c1.59-.22,5.23-1,6.3,3.06s-2.62,7.06-5,7.51c-.69.13-2.28.48-2.69,1.06-1.25,1.78-1.47,5.33-2,9.79-1.22,9.85,6.84,13.22,6.84,13.22s-46.18,49.59-24.73,3.23c0,0-1-22.89-1.14-23-2.21-1.69-9.89-1.53-7.26-18.28,2.44-15.52,13.54-15.91,16.39-15.78C230.75,50.92,239,50.35,240.91,69.38Z"/>
              <g>
                <path class="cls-27" d="M246.33,74.5s-3.21-5-5.46,2.55Z"/>
                <path class="cls-27" d="M227,71.23a3.78,3.78,0,1,0,4.17,3.35A3.79,3.79,0,0,0,227,71.23Z"/>
                <path class="cls-27" d="M211.61,74.69a3.78,3.78,0,0,0,.34-7.07S210.89,72,211.61,74.69Z"/>
                <path class="cls-28" d="M214.51,72.34l6.09,2.09s-2.53,2.41-4.19,1.49S214.51,72.34,214.51,72.34Z"/>
                <path class="cls-27" d="M219,67.68l-.36,4.2-2.1-.61a.53.53,0,0,1-.23-.89Z"/>
                <path d="M225.47,65.11c.58.63,0-1.75-.91-2.2a1.69,1.69,0,0,0-2.31.58A5.32,5.32,0,0,1,225.47,65.11Z"/>
                <path d="M214.15,62.46c-.79.34.72-1.6,1.71-1.65a1.69,1.69,0,0,1,1.89,1.45A5.27,5.27,0,0,0,214.15,62.46Z"/>
                <path d="M222.57,68.55c-.19.72-.62,1.23-1,1.14s-.48-.75-.3-1.47.62-1.23,1-1.14S222.75,67.83,222.57,68.55Z"/>
                <path d="M216.94,66.73c-.18.68-.59,1.17-.93,1.09s-.46-.72-.28-1.4.59-1.18.93-1.09S217.12,66,216.94,66.73Z"/>
                <path class="cls-27" d="M219.21,84.87s7.3.42,10.87-.28S221.31,96.55,219.21,84.87Z"/>
              </g>
              <path class="cls-7" d="M216.29,54.5a22.28,22.28,0,0,1,10.28,4.11c5.61,4.25,3.46-5.36,6.47,1.8s1.2,10.84,10.54,8.69C243.58,69.1,241.91,32.59,216.29,54.5Z"/>
            </g>
            <path class="cls-29" d="M348.57,445c0-2.38-33.59-4.31-75-4.31s-75,1.93-75,4.31,33.59,4.32,75,4.32S348.57,447.42,348.57,445Z"/>
            <g>
              <path class="cls-30" d="M226.24,402.47l-4.43,33.31s2,5.9,2,9.54c-4.4,3-29,3.33-31,.92,4.66-4.65,16.34-11.37,16.34-11.37l-4.77-33Z"/>
              <path class="cls-31" d="M215.56,407.84l5.8,39.52s1.27,1,2.49-1.59c.74-1.56-.22-2.73-1.93-9l3.52-29.3Z"/>
              <path class="cls-30" d="M283.77,401.86l10.14,30.43s-2.39,11.55-2.69,12.31c-1.08,2.68,8.49,4.11,8.49,4.11l.27-44.93Z"/>
              <path class="cls-31" d="M294.07,401.86l5.86,36s10.43,7.18,11.24,4.91c.34-.94-6.19-8.55-7.54-11l.73-29.3Z"/>
              <path class="cls-25" d="M192.05,444.87c-.79.59-2,3.43-.88,3.44l22.94.18c.56,0,11-.57,11.42-.85,0,0-.61-3.32-.61-3.32Z"/>
              <polygon class="cls-25" points="204.65 445.15 198.35 439.94 209.21 434.87 217.53 445.15 204.65 445.15"/>
              <path class="cls-31" d="M312.77,443.4c.94,1.43.42,3.15-1.29,4.16-2.76,1.65-8.76,1.42-8.76,1.42s-6,.33-8.85-.91c-1.91-.83-3.4-2.05-3.16-3.64l.33-2.14c0-.19,7.3-1,7.3-1l1.1-12.33Z"/>
              <g>
                <polygon class="cls-25" points="289.85 442.13 312.59 441.59 305.46 434.19 292.31 434.46 289.85 442.13"/>
                <polygon class="cls-25" points="316.97 450.63 288.75 450.9 290.4 444.87 313.96 444.87 316.97 450.63"/>
              </g>
            </g>
            <g>
              <path class="cls-24" d="M250.4,170.66c7.13,12.59,17.62,21.22,21.71,37.23,4.75,18.58,51.88,175.83,61.57,211-2.3.55-48.76,0-48.76,0L235.18,245a3.89,3.89,0,0,0-7.64,1.09l1,173.3s-33.92,1.24-35.07,1.09c-3.86-41.61-12.89-200.4,18-251.47C225.56,167.08,236.08,170.23,250.4,170.66Z"/>
              <path class="cls-28" d="M199.77,420c0-1.26-3.43-126-3.43-169.49s17.25-78.46,17.43-78.81l.4.2c-.18.35-17.38,35.22-17.38,78.61s3.39,168.22,3.43,169.48Z"/>
              <rect class="cls-28" x="286.96" y="165.21" width="0.45" height="258.55" transform="translate(-72.56 95.04) rotate(-16.71)"/>
              <polygon class="cls-28" points="263.08 214.59 240.42 170.17 240.82 169.97 263.48 214.38 263.08 214.59"/>
              <path class="cls-32" d="M209.51,170.23l61.85,41.17c4.88.57-6.87-19.39-21-40.74Z"/>
              <polygon class="cls-28" points="199.93 218.14 199.52 217.96 218.69 174.13 219.1 174.31 199.93 218.14"/>
            </g>
            <path class="cls-26" d="M122,165.08c13-.4,21.71-.39,22.92-.29l42-.92-.12-.11s2.11,0,3.6-.12a1.65,1.65,0,0,0,1.49-1.27c4-17,12.17-61.73,26.77-58.08.21,0,5.13.77,4.61,1.43-4.78,6-13.5,35.62-13.5,35.62-.1.44-.08,2.43-.07,5.29,5.13,29.45-1,31.74-1,31.74a14.38,14.38,0,0,1-3.1,1.36l-.07.09-.05,0c-18.74,5.82-72.94-6.83-72.94-6.83C128.06,171.75,118.22,165.19,122,165.08Z"/>
            <g>
              <path class="cls-27" d="M216.82,113.74c1-5.06,1.87-9.43,1.78-9.45-2.66-.67-5.11.29-7.35,2.38a100.14,100.14,0,0,1-1.6,18.7C212.11,121.53,214.42,117.58,216.82,113.74Z"/>
              <path class="cls-30" d="M200.08,176.7a24.07,24.07,0,0,0-.08,4.16,31.49,31.49,0,0,0,5.41-1.09l.05,0,.07-.09a14.38,14.38,0,0,0,3.1-1.36s3.31-1.25,3-13.57C205.79,165.31,200.73,171.2,200.08,176.7Z"/>
            </g>
            <path class="cls-26" d="M140.73,164.71s-9.85-6.23-10.26-4.72c-.81,3,7.37,6.09,6.34,7C136.81,167,139.19,165.53,140.73,164.71Z"/>
            <path class="cls-33" d="M220,103.2c-.2-1.24-1.23.2-3.28.82-4.25,9-13.17,33-12.82,40,.49,9.86,4.85,22.43,4.32,23.92,0,0,8.77,3.83,42.19,2.19.61-10.3,19.29-42.74,2.64-60.6-1.83-2.85-10.06-8.92-14.24-10.6C238.8,98.91,217.12,131.14,220,103.2Z"/>
            <path class="cls-25" d="M240.81,77l5.7,7.8a5.76,5.76,0,1,1-10.33.78Z"/>
          </g>
          <path class="cls-3" d="M200.46,170.92s18.63-63.62,41.66-64.24c18.88-.51,36.09,6.12,53.66,49.56l-15.15,1.62s-15.34-46.8-34.75-49.88-28.46,58.4-28.46,58.4Z"/>
          <g>
            <path class="cls-19" d="M294.35,245.42l-70,9.35A16.4,16.4,0,0,1,206,240.67l-9.89-74L298.55,153l9.89,74A16.41,16.41,0,0,1,294.35,245.42Z"/>
            <g>
              <g>
                <path class="cls-33" d="M237.38,232.59a7.16,7.16,0,0,1-1.34-5,18,18,0,0,1,1.71-6.06,3,3,0,0,1-.12-.7l3.59-7.75L248.7,217l-6.4-15-15.06,3.81,5.68,2.95-4.45,9.62-.09.72a12.52,12.52,0,0,0,9.1,13.59Z"/>
                <path class="cls-33" d="M241.58,223.71a3.07,3.07,0,0,1-2.5-.39A17,17,0,0,0,238,227a5.94,5.94,0,0,0,.69,4.19,5.74,5.74,0,0,0,2.4,2,12.35,12.35,0,0,0,2.88-.41l9.44-2.52-2.4-9Z"/>
              </g>
              <g>
                <path class="cls-33" d="M285,210.16a7.2,7.2,0,0,1-3.3,3.94,18,18,0,0,1-5.94,2.08,2.73,2.73,0,0,1-.51.51l-8.4,1.51-1.12-8.36-8.58,13.84,11.78,10.14-.85-6.35,10.43-1.87.64-.35A12.48,12.48,0,0,0,285,210,1.24,1.24,0,0,1,285,210.16Z"/>
                <path class="cls-33" d="M275.27,211.81a3,3,0,0,1,1.12,2.28,16.66,16.66,0,0,0,3.62-1.25,5.86,5.86,0,0,0,3-3,5.7,5.7,0,0,0,.24-3.09,12.54,12.54,0,0,0-2-2.12l-7.48-6.28-6,7.15Z"/>
              </g>
              <g>
                <path class="cls-33" d="M242.58,182.45a7.18,7.18,0,0,1,5,1,18,18,0,0,1,4.69,4.21,2.42,2.42,0,0,1,.69.2l5.38,6.63-6.79,5,16.26.84,3.2-15.2-5.15,3.8-6.67-8.23-.61-.4a12.51,12.51,0,0,0-16.21,2.19Z"/>
                <path class="cls-33" d="M248.71,190.13a3,3,0,0,1,1.45-2.07,16.84,16.84,0,0,0-2.84-2.57,5.21,5.21,0,0,0-6.89.06,13,13,0,0,0-.89,2.77l-1.89,9.59,9.16,1.81Z"/>
              </g>
            </g>
          </g>
        </g>
        <g>
          <g>
            <path class="cls-34" d="M271.9,301.62a67.4,67.4,0,0,1-8.38,10.59c1.84,4.39,3.62,8.79,5.29,13.24h10C277.59,317.68,274.54,309.09,271.9,301.62Z"/>
            <path class="cls-34" d="M259.23,307.09a.79.79,0,0,1-.7-1.08l.09-.24a293.38,293.38,0,0,0-13.77-26.22.9.9,0,0,1,1.55-.9q7.15,12.06,13.1,24.75,2.44-6.54,4.88-13.09c.4-1.08,2.14-.61,1.74.48q-2.78,7.45-5.56,14.9,1.1,2.37,2.14,4.76a64.43,64.43,0,0,0,8.41-11c-2.69-6.95-6.68-13.49-12.41-18.23-3.22-2.67-7.39-4.8-11.47-3.88-3.7.84-6.5,4.11-7.7,7.71s-1,7.52-.59,11.3c1.18,10,5.08,20.21,9.92,29.06h18Q263.37,316.14,259.23,307.09Z"/>
          </g>
          <g>
            <path class="cls-2" d="M229.55,303.93c.09-3.13.17-6.25.26-9.38a.79.79,0,0,1,.25-.6,7.91,7.91,0,0,0-5.59-1.11,7.14,7.14,0,0,0-4.53,3.67C223.64,297.84,226.81,300.73,229.55,303.93Z"/>
            <path class="cls-2" d="M231.3,305.72a.88.88,0,0,1-.05.29c1.28,1.64,2.46,3.3,3.56,4.81a51.5,51.5,0,0,1,7.55,14.63h3.56c-.88-5.38-3-11.34-4.83-16.47a30.59,30.59,0,0,0-8.84-13.51l-.65-.51Z"/>
            <path class="cls-2" d="M220.84,314.31c4.7.11,9.38.05,14.07-.18-.36-.54-.71-1.07-1.08-1.6-3.52-5-8.45-12.16-14.62-14.36a18,18,0,0,0-.37,7.56,46.66,46.66,0,0,0,1.91,8.58Z"/>
            <path class="cls-2" d="M236,315.88q-7.32.39-14.65.23a65.78,65.78,0,0,0,4.21,9.34h14.92A46.34,46.34,0,0,0,236,315.88Z"/>
          </g>
          <g>
            <path class="cls-2" d="M318.65,265.73q4.61-12.48,8.26-25.29a17.29,17.29,0,0,0-6.33.32A31,31,0,0,0,308.37,247Q313.29,256.51,318.65,265.73Z"/>
            <path class="cls-2" d="M313.94,282.53a112.42,112.42,0,0,1,14.57.15,49.79,49.79,0,0,1,5.82.86c.19-.64.38-1.27.55-1.91,2.76-10.27,4-21.21,1.43-31.53a14.6,14.6,0,0,0-2.94-6.44,9.82,9.82,0,0,0-4.69-2.84A359,359,0,0,1,313.94,282.53Z"/>
            <path class="cls-2" d="M290.59,324.7a356,356,0,0,0,24-48.33q-6.39-11.43-13.37-22.5c-6.22,6.86-11.5,14.47-16.76,22.06a3.72,3.72,0,0,0-.91,2.21c.06,1.18,1.16,2,2.16,2.64L292.2,285a6.34,6.34,0,0,1,2.63,2.52c1.19,2.69-1.91,5.59-4.85,5.66s-5.62-1.52-8.41-2.45a3.5,3.5,0,0,0-2.58-.11,3.81,3.81,0,0,0-1.51,1.73q-9.23,16.47-17.61,33.4l30.75-.11A.82.82,0,0,1,290.59,324.7Z"/>
            <path class="cls-2" d="M329.06,284.54c-1.66-.18-3.32-.28-5-.33-3.64-.11-7.28,0-10.92.15a356.14,356.14,0,0,1-21,41.25l18.74-.06a107,107,0,0,0,23-40.44C332,284.81,329.23,284.55,329.06,284.54Z"/>
            <path class="cls-2" d="M315.4,274.23q1.26-3.14,2.44-6.3-5.7-9.74-10.89-19.75c-1.57,1.36-3.07,2.82-4.5,4.32Q309.2,263.21,315.4,274.23Z"/>
          </g>
          <g>
            <path class="cls-34" d="M326.17,315.35a1.05,1.05,0,0,1-.31,0c-1,3.21-1.92,6.47-2.7,9.76a1,1,0,0,1-.17.37h9a65.19,65.19,0,0,0,4.64-10.58Z"/>
            <path class="cls-34" d="M334.7,293.7A138.4,138.4,0,0,0,329,306.33a59.11,59.11,0,0,1,9.76-1,17.25,17.25,0,0,0-.44-7.3,8.34,8.34,0,0,0-3.57-4.57A1,1,0,0,1,334.7,293.7Z"/>
            <path class="cls-34" d="M328.81,308.19a1,1,0,0,1-.48,0c-.67,1.78-1.31,3.57-1.9,5.38l10.8-.49a47.21,47.21,0,0,0,1.32-5.87A55.87,55.87,0,0,0,328.81,308.19Z"/>
            <path class="cls-34" d="M321.42,324.61a141.58,141.58,0,0,1,11.7-31.77c-2.77-.63-5.59.82-7.78,2.63A30.59,30.59,0,0,0,316.5,309c-1.82,5.13-4,11.09-4.83,16.47h10A.85.85,0,0,1,321.42,324.61Z"/>
          </g>
        </g>
        <path class="cls-2" d="M60.91,0S41.75,3.93,45.56,16.78C45.56,16.78,62,18.83,60.91,0Z"/>
        <path class="cls-23" d="M8.41,42.68S7.83,31.56.27,32.61C.27,32.61-2.29,41.69,8.41,42.68Z"/>
        <path class="cls-2" d="M310.6,184.62s-3.6-10.2,8.11-13.2C318.71,171.42,323.14,184.35,310.6,184.62Z"/>
        <path class="cls-23" d="M283,26.54s-3.6-10.2,8.12-13.2C291.15,13.34,295.58,26.27,283,26.54Z"/>
        <path class="cls-2" d="M317.38,195.55s4.2-14.45,19.89-8.34C337.27,187.21,331.78,205.43,317.38,195.55Z"/>
      </g>
    </g>
  </g>
</svg>
