<svg width="49" height="65" viewBox="0 0 49 65" fill="none" xmlns="http://www.w3.org/2000/svg">
<path d="M23.229 0.208703C22.2904 0.598733 21.94 1.36732 21.9275 2.99627V3.89104H15.808H9.70101L9.28804 4.14341C8.43706 4.68257 8.09918 5.43969 8.31192 6.34593C8.44958 6.95392 9.12535 7.63073 9.7761 7.79133C10.4394 7.96341 37.7831 7.95193 38.509 7.77986C39.5727 7.52749 40.3235 6.50653 40.1233 5.5544C40.0232 5.02671 39.6102 4.47608 39.0846 4.15488L38.6591 3.89104H32.5521H26.4326V2.93891C26.4326 1.29849 26.0572 0.564318 25.031 0.162818C24.4178 -0.0666115 23.8547 -0.05514 23.229 0.208703Z" fill="#016A70"/>
<path d="M1.44013 11.2448C0.851962 11.4054 0.213732 12.0363 0.0510457 12.6099C-0.0615831 13.0114 0.000988422 13.6309 0.351389 16.0972C0.576647 17.7376 0.801904 19.2633 0.839447 19.4584L0.914533 19.8369H3.09202C5.13186 19.8369 5.28203 19.8254 5.28203 19.6304C5.28203 19.4125 4.84403 16.2005 4.70637 15.5007L4.6438 15.1336H24.1786C34.9159 15.1336 43.701 15.168 43.701 15.2139C43.701 15.2713 43.5633 16.2578 43.3881 17.4164C43.2129 18.5751 43.0753 19.5845 43.0753 19.6763C43.0753 19.8025 43.4757 19.8369 45.2653 19.8369C47.4302 19.8369 47.4553 19.8369 47.5053 19.5731C47.5429 19.4354 47.7681 17.9097 48.0184 16.2005C48.3938 13.562 48.4439 12.9999 48.3188 12.587C48.1561 12.0019 47.5053 11.4054 46.8546 11.2333C46.2539 11.0842 2.01579 11.0957 1.44013 11.2448Z" fill="#016A70"/>
<path d="M6.28418 57.0383C6.28418 57.3595 7.16018 63.1985 7.24778 63.3935C7.41047 63.8294 7.82344 64.2424 8.29898 64.4603C8.77453 64.6898 9.02481 64.6898 24.3423 64.6668L39.9101 64.6324L40.3607 64.3112C40.6109 64.1391 40.9113 63.8409 41.0114 63.6573C41.1741 63.382 42.0751 57.7839 42.0751 57.0842C42.0751 56.9121 41.8874 56.8892 39.8976 56.8892C37.7452 56.8892 37.7201 56.8892 37.6576 57.1415C37.62 57.2907 37.4949 58.1396 37.3697 59.0458L37.1445 60.6747L24.1922 60.6518L11.2273 60.6174L10.952 58.782C10.8018 57.7725 10.6767 56.9351 10.6767 56.9121C10.6642 56.9006 9.67556 56.8892 8.47418 56.8892C6.72218 56.8892 6.28418 56.9236 6.28418 57.0383Z" fill="#016A70"/>
<path d="M19.2077 20.5661C18.1887 20.9816 17.793 21.4169 16.6157 23.3955C15.8045 24.7607 15.5572 25.2356 15.6066 25.4137C15.6462 25.5818 16.4871 26.1853 18.7922 27.6989C21.483 29.4599 21.9579 29.727 22.136 29.6478C22.2646 29.5885 22.779 28.7377 23.4814 27.412C24.1047 26.2348 24.6587 25.2851 24.6982 25.3048C24.7774 25.3246 27.2407 30.004 27.2308 30.1227C27.2308 30.1524 26.7164 30.4789 26.0931 30.8647C24.8367 31.6067 24.5894 31.8639 24.7675 32.1903C24.8268 32.3091 24.9752 32.4179 25.094 32.4377C25.7271 32.5762 33.2161 33.3874 33.3744 33.3379C33.4733 33.3082 33.6711 33.0312 33.8195 32.7147C36.0553 28.0353 37.5294 24.8102 37.5294 24.6222C37.5294 24.4639 37.4502 24.3452 37.292 24.276C37.0842 24.177 36.8962 24.2463 35.7981 24.83C34.7989 25.3642 34.5219 25.473 34.4527 25.3642C34.4032 25.2851 33.9086 24.4343 33.3546 23.4648C32.5532 22.0699 32.2268 21.5851 31.7816 21.1696C30.8418 20.299 31.0495 20.3287 25.0247 20.3287H19.7716L19.2077 20.5661ZM23.4319 22.6733C23.7881 23.4153 24.075 24.0781 24.075 24.1573C24.075 24.2859 21.9678 28.2134 21.8194 28.3618C21.76 28.4211 17.1202 25.4631 16.8235 25.1861C16.7542 25.1169 18.1392 22.6733 18.4657 22.3073C19.1384 21.5257 19.7617 21.3279 21.4731 21.318H22.7889L23.4319 22.6733ZM30.3372 21.4763C31.1287 21.7434 31.5046 22.1886 32.7313 24.3848C33.3645 25.5027 33.9679 26.5019 34.0767 26.6107C34.2647 26.8086 34.2746 26.8086 35.0759 26.3931C35.531 26.1655 35.9069 25.9974 35.9267 26.0171C35.9564 26.0468 33.1864 31.9727 32.9885 32.2794C32.9292 32.3783 32.3257 32.3288 30.0305 32.0518C28.4378 31.8639 27.0923 31.7056 27.033 31.7056C26.8153 31.7056 27.0132 31.4978 27.6859 31.0428C28.0618 30.7756 28.3883 30.4986 28.4081 30.4096C28.4279 30.3206 27.4287 28.2925 26.202 25.8885C24.9752 23.4944 23.9761 21.4862 23.9761 21.4268C23.9761 21.3477 24.8466 21.318 26.9242 21.318C29.3578 21.318 29.9613 21.3477 30.3372 21.4763Z" fill="#016A70"/>
<path d="M16.3096 29.3027C16.092 29.3225 14.2123 29.4511 12.1249 29.5797C9.5923 29.738 8.28643 29.8567 8.1875 29.9359C8.09846 30.0051 8.049 30.1832 8.06878 30.3613C8.09846 30.6284 8.24686 30.7471 9.38455 31.4891C10.0968 31.9442 10.73 32.3498 10.7992 32.3893C10.9081 32.4487 10.6904 32.973 9.88909 34.6548C9.31529 35.8618 8.79097 37.0786 8.73161 37.3655C8.59311 38.0085 8.67225 38.9484 8.92947 39.5815C9.27572 40.4422 13.9452 48.6632 14.3607 49.1282C14.8257 49.6525 15.7754 50.1571 16.547 50.3055C16.8339 50.3549 17.6056 50.4044 18.2486 50.4044C19.9799 50.4044 19.8216 50.8595 19.8216 45.9526C19.8216 42.0251 19.8117 41.8866 19.6237 41.6986C19.4358 41.5106 19.2973 41.5007 17.3484 41.5007C16.092 41.5007 15.2708 41.4612 15.2708 41.4018C15.2708 41.2237 17.8727 36.6532 17.9815 36.6532C18.0409 36.6532 18.5949 36.8511 19.2181 37.0984C20.2767 37.5139 20.3657 37.5337 20.5834 37.3952C20.7021 37.3061 20.8109 37.1478 20.8109 37.039C20.8109 36.7422 17.566 29.5105 17.3682 29.3522C17.2099 29.2335 17.101 29.2335 16.3096 29.3027ZM18.1002 33.1313C18.773 34.6548 19.3171 35.931 19.3072 35.9706C19.2874 36.02 18.9708 35.9211 18.585 35.7529C17.6946 35.377 17.4968 35.3869 17.2494 35.7826C17.1406 35.9607 16.0623 37.8997 14.8455 40.086C13.6385 42.2823 12.6195 44.0729 12.5899 44.0729C12.5602 44.0729 11.927 42.9847 11.1851 41.659C9.7308 39.0572 9.5824 38.6318 9.74069 37.6623C9.78026 37.3952 10.2947 36.1882 10.9674 34.7834C11.749 33.1511 12.1051 32.3102 12.0655 32.1618C12.0359 32.0332 11.6599 31.7265 11.096 31.3704C10.5915 31.0439 10.2353 30.7669 10.2947 30.7471C10.4926 30.6779 15.6567 30.3415 16.2898 30.3613L16.8636 30.3712L18.1002 33.1313ZM18.8323 45.9526V49.3162H17.6155C16.5174 49.3162 16.3492 49.2964 15.904 49.0688C15.627 48.9303 15.2906 48.6929 15.1422 48.5445C14.7663 48.1488 13.1834 45.3392 13.223 45.1512C13.2428 45.0622 13.589 44.4587 13.9749 43.7959L14.6872 42.589H16.7548H18.8323V45.9526Z" fill="#016A70"/>
<path d="M34.0672 34.1293C31.2773 35.8309 30.753 36.1772 30.7233 36.3849C30.7035 36.5531 31.0498 37.305 31.7819 38.6504C32.3854 39.7584 32.8998 40.7477 32.9394 40.8367C32.9987 40.995 32.8009 41.0049 30.476 41.0049H27.9533L27.9137 39.7188C27.8841 38.5811 27.8643 38.4229 27.6862 38.2943C27.5774 38.2052 27.4191 38.1459 27.3399 38.1656C27.2113 38.1854 22.0077 44.0025 21.6317 44.5367C21.5427 44.6752 21.5031 44.8533 21.5427 44.9819C21.5724 45.1105 22.8387 46.8516 24.3523 48.8698C27.152 52.6093 27.3202 52.7874 27.6961 52.4807C27.795 52.3917 27.8346 52.1147 27.8346 51.3826V50.4032H29.8626C31.96 50.4032 32.6624 50.3142 33.3153 49.9877C34.1166 49.5821 34.542 48.9885 36.3821 45.6942C37.3615 43.9629 38.5091 41.9447 38.9444 41.2127C39.3797 40.4905 39.8347 39.6595 39.9633 39.3726C40.2601 38.7295 40.3591 37.76 40.2107 37.0576C40.1513 36.7707 39.6171 35.5341 39.0235 34.3173C37.9848 32.2002 37.9254 32.1013 37.6583 32.1112C37.4802 32.1112 36.2337 32.8136 34.0672 34.1293ZM38.3013 35.0296C38.7564 35.9892 39.1818 37.0082 39.2412 37.305C39.4093 38.1063 39.2412 38.7295 38.519 39.9662L37.9056 41.0049L36.026 40.9851L34.1364 40.9555L33.0185 38.8779C32.3952 37.7304 31.8907 36.751 31.8907 36.7015C31.9006 36.6124 37.2923 33.2884 37.4308 33.2884C37.4604 33.2884 37.8463 34.07 38.3013 35.0296ZM27.0333 41.8359C27.152 41.9744 27.6466 41.9942 32.1974 41.9942C34.9674 41.9942 37.2329 42.0338 37.2329 42.0832C37.2329 42.1525 34.2254 47.5343 33.7506 48.3059C33.6418 48.484 33.345 48.7709 33.0976 48.949L32.6327 49.2655L29.9616 49.2952C27.3993 49.3249 27.2806 49.3348 27.0728 49.5326C26.9244 49.6711 26.8453 49.8591 26.8453 50.0767C26.8453 50.2548 26.8156 50.4032 26.7761 50.3933C26.6474 50.3834 22.7397 45.061 22.7397 44.9027C22.7397 44.8236 23.6499 43.7156 24.7678 42.4295L26.7958 40.0948L26.8453 40.8862C26.875 41.3314 26.9541 41.737 27.0333 41.8359Z" fill="#016A70"/>
</svg>
